<svg xmlns="http://www.w3.org/2000/svg" xmlns:xlink="http://www.w3.org/1999/xlink" zoomAndPan="magnify" preserveAspectRatio="xMidYMid meet" version="1.0" viewBox="85.07 160.03 203.91 58.5"><defs><g/></defs><path stroke-linecap="butt" transform="matrix(0.751576, 0, 0, 0.75, 91.066859, 208.021597)" fill="none" stroke-linejoin="miter" d="M -0.000601762 6.002455 L 148.6921 6.002455 " stroke="#fefae0" stroke-width="12" stroke-opacity="1" stroke-miterlimit="4"/><g fill="#fefae0" fill-opacity="1"><g transform="translate(91.066859, 195.260788)"><g><path d="M 35.34375 0 L 35.234375 -18.671875 L 26.171875 -3.46875 L 21.75 -3.46875 L 12.734375 -18.171875 L 12.734375 0 L 3.53125 0 L 3.53125 -35.234375 L 11.734375 -35.234375 L 24.109375 -14.90625 L 36.203125 -35.234375 L 44.40625 -35.234375 L 44.5 0 Z M 35.34375 0 "/></g></g></g><g fill="#fefae0" fill-opacity="1"><g transform="translate(143.47509, 195.260788)"><g><path d="M 31.8125 -7.703125 L 31.8125 0 L 3.53125 0 L 3.53125 -35.234375 L 31.15625 -35.234375 L 31.15625 -27.53125 L 13.390625 -27.53125 L 13.390625 -21.59375 L 29.046875 -21.59375 L 29.046875 -14.140625 L 13.390625 -14.140625 L 13.390625 -7.703125 Z M 31.8125 -7.703125 "/></g></g></g><g fill="#fefae0" fill-opacity="1"><g transform="translate(181.686378, 195.260788)"><g><path d="M 18.921875 -9.359375 L 13.484375 -9.359375 L 13.484375 0 L 3.53125 0 L 3.53125 -35.234375 L 19.640625 -35.234375 C 22.828125 -35.234375 25.59375 -34.703125 27.9375 -33.640625 C 30.289062 -32.585938 32.101562 -31.078125 33.375 -29.109375 C 34.65625 -27.148438 35.296875 -24.847656 35.296875 -22.203125 C 35.296875 -19.648438 34.695312 -17.425781 33.5 -15.53125 C 32.3125 -13.632812 30.609375 -12.148438 28.390625 -11.078125 L 36 0 L 25.328125 0 Z M 25.21875 -22.203125 C 25.21875 -23.847656 24.695312 -25.125 23.65625 -26.03125 C 22.613281 -26.9375 21.070312 -27.390625 19.03125 -27.390625 L 13.484375 -27.390625 L 13.484375 -17.0625 L 19.03125 -17.0625 C 21.070312 -17.0625 22.613281 -17.503906 23.65625 -18.390625 C 24.695312 -19.285156 25.21875 -20.554688 25.21875 -22.203125 Z M 25.21875 -22.203125 "/></g></g></g><g fill="#fefae0" fill-opacity="1"><g transform="translate(223.321046, 195.260788)"><g><path d="M 3.53125 -35.234375 L 13.484375 -35.234375 L 13.484375 0 L 3.53125 0 Z M 3.53125 -35.234375 "/></g></g></g><g fill="#fefae0" fill-opacity="1"><g transform="translate(244.767845, 195.260788)"><g><path d="M 11.03125 -27.34375 L 0.203125 -27.34375 L 0.203125 -35.234375 L 31.765625 -35.234375 L 31.765625 -27.34375 L 21 -27.34375 L 21 0 L 11.03125 0 Z M 11.03125 -27.34375 "/></g></g></g><g fill="#fefae0" fill-opacity="1"><g transform="translate(208.34378, 215.328008)"><g><path d="M 4.21875 -7.796875 C 5.21875 -7.796875 6.007812 -7.550781 6.59375 -7.0625 C 7.175781 -6.582031 7.46875 -5.921875 7.46875 -5.078125 C 7.46875 -4.234375 7.175781 -3.566406 6.59375 -3.078125 C 6.007812 -2.597656 5.21875 -2.359375 4.21875 -2.359375 L 2.28125 -2.359375 L 2.28125 0 L 1.171875 0 L 1.171875 -7.796875 Z M 4.171875 -3.328125 C 4.878906 -3.328125 5.414062 -3.476562 5.78125 -3.78125 C 6.15625 -4.082031 6.34375 -4.515625 6.34375 -5.078125 C 6.34375 -5.640625 6.15625 -6.070312 5.78125 -6.375 C 5.414062 -6.675781 4.878906 -6.828125 4.171875 -6.828125 L 2.28125 -6.828125 L 2.28125 -3.328125 Z M 4.171875 -3.328125 "/></g></g></g><g fill="#fefae0" fill-opacity="1"><g transform="translate(219.149737, 215.328008)"><g><path d="M 1.171875 -7.796875 L 2.28125 -7.796875 L 2.28125 0 L 1.171875 0 Z M 1.171875 -7.796875 "/></g></g></g><g fill="#fefae0" fill-opacity="1"><g transform="translate(225.366707, 215.328008)"><g><path d="M 7.875 -7.796875 L 7.875 0 L 6.96875 0 L 2.28125 -5.8125 L 2.28125 0 L 1.171875 0 L 1.171875 -7.796875 L 2.078125 -7.796875 L 6.765625 -1.984375 L 6.765625 -7.796875 Z M 7.875 -7.796875 "/></g></g></g><g fill="#fefae0" fill-opacity="1"><g transform="translate(237.175111, 215.328008)"><g><path d="M 6.828125 -0.96875 L 6.828125 0 L 1.171875 0 L 1.171875 -7.796875 L 6.671875 -7.796875 L 6.671875 -6.828125 L 2.28125 -6.828125 L 2.28125 -4.4375 L 6.1875 -4.4375 L 6.1875 -3.484375 L 2.28125 -3.484375 L 2.28125 -0.96875 Z M 6.828125 -0.96875 "/></g></g></g><g fill="#fefae0" fill-opacity="1"><g transform="translate(247.40188, 215.328008)"><g><path d="M 4.65625 0.09375 C 3.875 0.09375 3.171875 -0.078125 2.546875 -0.421875 C 1.921875 -0.773438 1.425781 -1.253906 1.0625 -1.859375 C 0.707031 -2.460938 0.53125 -3.144531 0.53125 -3.90625 C 0.53125 -4.65625 0.707031 -5.332031 1.0625 -5.9375 C 1.425781 -6.539062 1.921875 -7.015625 2.546875 -7.359375 C 3.179688 -7.710938 3.890625 -7.890625 4.671875 -7.890625 C 5.273438 -7.890625 5.828125 -7.785156 6.328125 -7.578125 C 6.835938 -7.378906 7.269531 -7.078125 7.625 -6.671875 L 6.90625 -5.96875 C 6.320312 -6.582031 5.59375 -6.890625 4.71875 -6.890625 C 4.132812 -6.890625 3.609375 -6.757812 3.140625 -6.5 C 2.671875 -6.238281 2.304688 -5.878906 2.046875 -5.421875 C 1.785156 -4.972656 1.65625 -4.46875 1.65625 -3.90625 C 1.65625 -3.332031 1.785156 -2.816406 2.046875 -2.359375 C 2.304688 -1.910156 2.671875 -1.554688 3.140625 -1.296875 C 3.609375 -1.035156 4.132812 -0.90625 4.71875 -0.90625 C 5.582031 -0.90625 6.3125 -1.21875 6.90625 -1.84375 L 7.625 -1.140625 C 7.269531 -0.734375 6.835938 -0.425781 6.328125 -0.21875 C 5.816406 -0.0078125 5.257812 0.09375 4.65625 0.09375 Z M 4.65625 0.09375 "/></g></g></g><g fill="#fefae0" fill-opacity="1"><g transform="translate(258.218971, 215.328008)"><g><path d="M 4.6875 0.09375 C 3.90625 0.09375 3.195312 -0.078125 2.5625 -0.421875 C 1.925781 -0.773438 1.425781 -1.253906 1.0625 -1.859375 C 0.707031 -2.472656 0.53125 -3.15625 0.53125 -3.90625 C 0.53125 -4.65625 0.707031 -5.332031 1.0625 -5.9375 C 1.425781 -6.539062 1.925781 -7.015625 2.5625 -7.359375 C 3.195312 -7.710938 3.90625 -7.890625 4.6875 -7.890625 C 5.46875 -7.890625 6.171875 -7.710938 6.796875 -7.359375 C 7.429688 -7.015625 7.925781 -6.539062 8.28125 -5.9375 C 8.644531 -5.332031 8.828125 -4.65625 8.828125 -3.90625 C 8.828125 -3.144531 8.644531 -2.460938 8.28125 -1.859375 C 7.925781 -1.253906 7.429688 -0.773438 6.796875 -0.421875 C 6.171875 -0.078125 5.46875 0.09375 4.6875 0.09375 Z M 4.6875 -0.90625 C 5.257812 -0.90625 5.773438 -1.035156 6.234375 -1.296875 C 6.691406 -1.554688 7.050781 -1.910156 7.3125 -2.359375 C 7.570312 -2.816406 7.703125 -3.332031 7.703125 -3.90625 C 7.703125 -4.46875 7.570312 -4.972656 7.3125 -5.421875 C 7.050781 -5.878906 6.691406 -6.238281 6.234375 -6.5 C 5.773438 -6.757812 5.257812 -6.890625 4.6875 -6.890625 C 4.113281 -6.890625 3.59375 -6.757812 3.125 -6.5 C 2.664062 -6.238281 2.304688 -5.878906 2.046875 -5.421875 C 1.785156 -4.972656 1.65625 -4.46875 1.65625 -3.90625 C 1.65625 -3.332031 1.785156 -2.816406 2.046875 -2.359375 C 2.304688 -1.910156 2.664062 -1.554688 3.125 -1.296875 C 3.59375 -1.035156 4.113281 -0.90625 4.6875 -0.90625 Z M 4.6875 -0.90625 "/></g></g></g><g fill="#fefae0" fill-opacity="1"><g transform="translate(270.339249, 215.328008)"><g><path d="M 7.875 -7.796875 L 7.875 0 L 6.96875 0 L 2.28125 -5.8125 L 2.28125 0 L 1.171875 0 L 1.171875 -7.796875 L 2.078125 -7.796875 L 6.765625 -1.984375 L 6.765625 -7.796875 Z M 7.875 -7.796875 "/></g></g></g><g fill="#fefae0" fill-opacity="1"><g transform="translate(282.147653, 215.328008)"><g><path d="M 6.828125 -0.96875 L 6.828125 0 L 1.171875 0 L 1.171875 -7.796875 L 6.671875 -7.796875 L 6.671875 -6.828125 L 2.28125 -6.828125 L 2.28125 -4.4375 L 6.1875 -4.4375 L 6.1875 -3.484375 L 2.28125 -3.484375 L 2.28125 -0.96875 Z M 6.828125 -0.96875 "/></g></g></g></svg>
