<svg xmlns="http://www.w3.org/2000/svg" xmlns:xlink="http://www.w3.org/1999/xlink" width="500" zoomAndPan="magnify" viewBox="0 0 375 374.999991" height="500" preserveAspectRatio="xMidYMid meet" version="1.0"><defs><g/></defs><g fill="#e85a4f" fill-opacity="1"><g transform="translate(63.118668, 205.088233)"><g><path d="M -0.199219 -11.875 C -0.199219 -11.632812 0.0390625 -11.613281 0.101562 -11.59375 C 1.042969 -11.273438 0.960938 -10.292969 0.960938 -10.050781 L 0.960938 3.644531 C 0.960938 4.785156 0.800781 5.46875 0.261719 6.007812 L 5.167969 6.007812 C 6.027344 6.007812 6.269531 5.386719 6.269531 4.367188 L 6.269531 -1.84375 C 6.269531 -2.121094 6.488281 -1.984375 6.628906 -1.761719 C 7.710938 -0.0585938 8.910156 0.300781 9.953125 0.300781 C 13.558594 0.300781 15.621094 -2.84375 15.621094 -6.726562 C 15.621094 -10.332031 13.898438 -14.316406 9.953125 -14.316406 C 7.730469 -14.316406 6.988281 -12.734375 6.589844 -12.734375 C 6.449219 -12.734375 6.347656 -12.757812 6.269531 -12.9375 L 6.269531 -13.535156 C 6.269531 -13.9375 6.246094 -14.316406 5.667969 -14.316406 C 4.484375 -14.316406 0.820312 -12.433594 0.0195312 -12.136719 C -0.0195312 -12.113281 -0.199219 -12.074219 -0.199219 -11.875 Z M 6.269531 -9.273438 C 6.269531 -10.292969 6.46875 -12.214844 7.710938 -12.214844 C 9.933594 -12.214844 10.332031 -9.472656 10.332031 -7.289062 C 10.332031 -4.964844 10.253906 -2.203125 8.03125 -2.203125 C 6.429688 -2.203125 6.269531 -4.265625 6.269531 -5.367188 Z M 6.269531 -9.273438 "/></g></g></g><g fill="#e85a4f" fill-opacity="1"><g transform="translate(79.23117, 205.088233)"><g><path d="M 0 -11.875 C 0 -11.632812 0.242188 -11.613281 0.300781 -11.59375 C 1.0625 -11.335938 0.960938 -10.292969 0.960938 -10.050781 L 0.960938 -2.363281 C 0.960938 -1.222656 0.800781 -0.539062 0.261719 0 L 6.96875 0 C 6.429688 -0.539062 6.269531 -1.222656 6.269531 -2.363281 L 6.269531 -13.535156 C 6.269531 -13.9375 6.246094 -14.316406 5.667969 -14.316406 C 4.484375 -14.316406 1 -12.515625 0.21875 -12.136719 C 0.179688 -12.113281 0 -12.074219 0 -11.875 Z M 3.5625 -21.207031 C 1.800781 -21.207031 0.640625 -20.046875 0.640625 -18.28125 C 0.640625 -16.519531 1.800781 -15.359375 3.5625 -15.359375 C 5.328125 -15.359375 6.488281 -16.519531 6.488281 -18.28125 C 6.488281 -20.046875 5.328125 -21.207031 3.5625 -21.207031 Z M 3.5625 -21.207031 "/></g></g></g><g fill="#e85a4f" fill-opacity="1"><g transform="translate(86.296649, 205.088233)"><g><path d="M 6.910156 0 C 6.367188 -0.539062 6.207031 -1.222656 6.207031 -2.363281 L 6.207031 -7.808594 C 6.207031 -10.03125 7.046875 -10.652344 7.96875 -10.652344 C 8.851562 -10.652344 9.113281 -9.792969 9.113281 -8.871094 L 9.113281 -2.363281 C 9.113281 -1.222656 8.953125 -0.539062 8.410156 0 L 15.117188 0 C 14.578125 -0.539062 14.417969 -1.222656 14.417969 -2.363281 L 14.417969 -5.789062 L 14.398438 -9.613281 C 14.398438 -11.695312 13.898438 -14.316406 10.972656 -14.316406 C 7.589844 -14.316406 7.167969 -11.535156 6.347656 -11.535156 C 6.269531 -11.535156 6.207031 -11.535156 6.207031 -12.015625 L 6.207031 -12.355469 C 6.207031 -13.375 5.96875 -14.015625 5.105469 -14.015625 L 0.199219 -14.015625 C 0.742188 -13.476562 0.902344 -12.796875 0.902344 -11.65625 L 0.902344 -2.363281 C 0.902344 -1.222656 0.742188 -0.539062 0.199219 0 Z M 6.910156 0 "/></g></g></g><g fill="#e85a4f" fill-opacity="1"><g transform="translate(101.508455, 205.088233)"><g><path d="M 0.5 -6.628906 C 0.5 -2.683594 3.984375 0.300781 7.828125 0.300781 C 11.675781 0.300781 13.375 -2.421875 13.375 -3.945312 C 13.375 -4.285156 13.195312 -4.367188 13.054688 -4.367188 C 12.65625 -4.367188 12.355469 -3.324219 10.453125 -3.324219 C 8.148438 -3.324219 4.925781 -5.386719 4.925781 -6.109375 C 4.925781 -6.449219 5.1875 -6.429688 5.386719 -6.429688 C 8.910156 -6.429688 13.277344 -5.648438 13.277344 -8.972656 C 13.277344 -11.734375 11.253906 -14.316406 7.691406 -14.316406 C 3.003906 -14.316406 0.5 -11.015625 0.5 -6.628906 Z M 2.742188 -10.292969 C 2.742188 -11.433594 3.925781 -12.136719 5.046875 -12.136719 C 6.726562 -12.136719 9.132812 -10.972656 9.132812 -8.890625 C 9.132812 -7.550781 6.910156 -7.390625 5.027344 -7.390625 C 3.402344 -7.390625 2.742188 -8.871094 2.742188 -10.292969 Z M 2.742188 -10.292969 "/></g></g></g><g fill="#e85a4f" fill-opacity="1"><g transform="translate(115.279141, 205.088233)"><g><path d="M 0.5 -6.628906 C 0.5 -2.683594 3.984375 0.300781 7.828125 0.300781 C 11.675781 0.300781 13.375 -2.421875 13.375 -3.945312 C 13.375 -4.285156 13.195312 -4.367188 13.054688 -4.367188 C 12.65625 -4.367188 12.355469 -3.324219 10.453125 -3.324219 C 7.507812 -3.324219 2.664062 -6.75 2.664062 -10.011719 C 2.664062 -11.214844 3.285156 -12.09375 4.445312 -12.09375 C 5.746094 -12.09375 7.027344 -11.074219 7.851562 -9.914062 C 8.53125 -8.953125 8.308594 -8.230469 8.789062 -8.230469 C 9.089844 -8.230469 10.171875 -9.273438 11.015625 -10.011719 C 11.734375 -10.652344 12.65625 -11.355469 12.65625 -11.875 C 12.65625 -12.835938 10.03125 -14.316406 7.871094 -14.316406 C 2.863281 -14.316406 0.5 -10.792969 0.5 -6.628906 Z M 0.5 -6.628906 "/></g></g></g><g fill="#e85a4f" fill-opacity="1"><g transform="translate(129.049828, 205.088233)"><g><path d="M 2.542969 -1.761719 C 3.90625 -0.378906 5.6875 0.300781 7.507812 0.300781 C 9.371094 0.300781 11.273438 -0.441406 12.734375 -1.921875 C 15.597656 -4.824219 15.679688 -9.433594 12.894531 -12.234375 C 11.535156 -13.617188 9.753906 -14.296875 7.929688 -14.296875 C 6.066406 -14.296875 4.164062 -13.558594 2.703125 -12.09375 C -0.179688 -9.191406 -0.242188 -4.585938 2.542969 -1.761719 Z M 6.75 -13.238281 C 8.050781 -13.4375 9.53125 -10.792969 10.050781 -7.328125 C 10.574219 -3.804688 9.953125 -0.859375 8.671875 -0.660156 C 7.371094 -0.460938 5.886719 -3.082031 5.347656 -6.566406 C 4.804688 -10.074219 5.425781 -13.035156 6.75 -13.238281 Z M 6.75 -13.238281 "/></g></g></g><g fill="#e85a4f" fill-opacity="1"><g transform="translate(144.481807, 205.088233)"><g><path d="M 6.910156 0 C 6.367188 -0.539062 6.207031 -1.222656 6.207031 -2.363281 L 6.207031 -7.808594 C 6.207031 -10.03125 7.046875 -10.652344 7.96875 -10.652344 C 8.851562 -10.652344 9.113281 -9.792969 9.113281 -8.871094 L 9.113281 -2.363281 C 9.113281 -1.222656 8.953125 -0.539062 8.410156 0 L 15.117188 0 C 14.578125 -0.539062 14.417969 -1.222656 14.417969 -2.363281 L 14.417969 -5.789062 L 14.398438 -9.613281 C 14.398438 -11.695312 13.898438 -14.316406 10.972656 -14.316406 C 7.589844 -14.316406 7.167969 -11.535156 6.347656 -11.535156 C 6.269531 -11.535156 6.207031 -11.535156 6.207031 -12.015625 L 6.207031 -12.355469 C 6.207031 -13.375 5.96875 -14.015625 5.105469 -14.015625 L 0.199219 -14.015625 C 0.742188 -13.476562 0.902344 -12.796875 0.902344 -11.65625 L 0.902344 -2.363281 C 0.902344 -1.222656 0.742188 -0.539062 0.199219 0 Z M 6.910156 0 "/></g></g></g><g fill="#e85a4f" fill-opacity="1"><g transform="translate(159.693614, 205.088233)"><g><path d="M 0.5 -6.628906 C 0.5 -2.683594 3.984375 0.300781 7.828125 0.300781 C 11.675781 0.300781 13.375 -2.421875 13.375 -3.945312 C 13.375 -4.285156 13.195312 -4.367188 13.054688 -4.367188 C 12.65625 -4.367188 12.355469 -3.324219 10.453125 -3.324219 C 8.148438 -3.324219 4.925781 -5.386719 4.925781 -6.109375 C 4.925781 -6.449219 5.1875 -6.429688 5.386719 -6.429688 C 8.910156 -6.429688 13.277344 -5.648438 13.277344 -8.972656 C 13.277344 -11.734375 11.253906 -14.316406 7.691406 -14.316406 C 3.003906 -14.316406 0.5 -11.015625 0.5 -6.628906 Z M 2.742188 -10.292969 C 2.742188 -11.433594 3.925781 -12.136719 5.046875 -12.136719 C 6.726562 -12.136719 9.132812 -10.972656 9.132812 -8.890625 C 9.132812 -7.550781 6.910156 -7.390625 5.027344 -7.390625 C 3.402344 -7.390625 2.742188 -8.871094 2.742188 -10.292969 Z M 2.742188 -10.292969 "/></g></g></g><g fill="#e85a4f" fill-opacity="1"><g transform="translate(63.118668, 184.300111)"><g><path d="M 2.773438 -54.355469 L 2.773438 -7.273438 C 2.773438 -3.757812 2.28125 -1.664062 0.617188 0 L 13.496094 0 C 17.132812 0 20.335938 -1.664062 20.335938 -5.421875 C 20.335938 -14.296875 6.347656 -23.417969 6.347656 -43.140625 C 6.347656 -45.972656 6.59375 -49.855469 8.628906 -49.855469 C 11.585938 -49.855469 17.441406 -30.9375 18.859375 -26.625 C 22 -17.070312 25.144531 -6.222656 27.363281 -6.222656 C 29.765625 -6.222656 31.492188 -16.085938 34.019531 -26.4375 C 36.792969 -37.839844 40.242188 -49.855469 42.585938 -49.855469 C 44.617188 -49.855469 44.863281 -45.972656 44.863281 -43.140625 L 44.863281 -7.273438 C 44.863281 -3.757812 44.371094 -1.664062 42.707031 0 L 63.351562 0 C 61.6875 -1.664062 61.195312 -3.757812 61.195312 -7.273438 L 61.195312 -54.355469 C 61.195312 -57.867188 61.6875 -59.964844 63.351562 -61.628906 L 43.878906 -61.628906 C 38.023438 -61.628906 37.960938 -54.601562 32.046875 -36.792969 C 26.128906 -54.601562 26.070312 -61.628906 20.214844 -61.628906 L 0.617188 -61.628906 C 2.28125 -59.964844 2.773438 -57.867188 2.773438 -54.355469 Z M 2.773438 -54.355469 "/></g></g></g><g fill="#e85a4f" fill-opacity="1"><g transform="translate(127.077256, 184.300111)"><g><path d="M 1.539062 -30.8125 C 1.539062 -9.550781 12.695312 0.925781 26.5 0.925781 C 39.625 0.925781 47.023438 -10.90625 47.023438 -19.289062 C 47.023438 -22.125 46.21875 -22.617188 45.480469 -22.617188 C 42.460938 -22.617188 42.152344 -13.496094 31.367188 -13.496094 C 22.800781 -13.496094 14.359375 -21.445312 10.660156 -32.785156 C 10.292969 -34.019531 9.984375 -36.238281 11.957031 -36.238281 C 17.070312 -36.238281 21.261719 -25.082031 30.382812 -25.082031 C 37.960938 -25.082031 40.921875 -31.308594 40.921875 -35.4375 C 40.921875 -37.40625 40.367188 -38.949219 39.378906 -38.949219 C 38.332031 -38.949219 37.714844 -36.546875 34.882812 -36.546875 C 30.074219 -36.546875 24.652344 -41.597656 18.550781 -41.597656 C 13.066406 -41.597656 11.648438 -38.394531 9.796875 -38.394531 C 8.136719 -38.394531 8.628906 -44.25 8.628906 -45.417969 C 8.628906 -47.699219 9.550781 -52.875 13.679688 -52.875 C 21.691406 -52.875 25.699219 -45.480469 36.667969 -45.480469 C 41.105469 -45.480469 44.0625 -50.71875 45.296875 -53.617188 C 47.023438 -57.621094 47.882812 -62.550781 45.480469 -62.550781 C 43.570312 -62.550781 42.339844 -60.085938 38.085938 -60.085938 C 32.476562 -60.085938 28.71875 -62.550781 23.910156 -62.550781 C 8.75 -62.550781 1.539062 -46.097656 1.539062 -30.8125 Z M 1.539062 -30.8125 "/></g></g></g><g fill="#e85a4f" fill-opacity="1"><g transform="translate(175.323472, 184.300111)"><g><path d="M 0.617188 -61.628906 C 2.28125 -59.964844 2.773438 -57.867188 2.773438 -54.355469 L 2.773438 -30.8125 L 2.835938 -17.808594 L 2.835938 -7.273438 C 2.835938 -3.757812 2.34375 -1.664062 0.679688 0 L 18.242188 0 C 21.261719 0 22.617188 -3.757812 22.617188 -6.222656 C 22.617188 -18.117188 5.976562 -19.84375 5.976562 -25.945312 C 5.976562 -26.253906 6.222656 -27.175781 7.085938 -27.175781 C 10.105469 -27.175781 27.425781 -15.839844 27.425781 -7.640625 C 27.425781 -4.558594 26.375 -3.636719 26.375 -1.417969 C 26.375 -0.371094 27.363281 0 28.164062 0 L 41.476562 0 C 44.496094 0 45.542969 -1.664062 45.542969 -5.609375 C 45.542969 -15.34375 32.476562 -19.84375 23.417969 -23.234375 C 16.269531 -25.945312 8.503906 -29.148438 8.503906 -32.476562 C 8.503906 -33.464844 8.9375 -34.449219 10.601562 -34.449219 C 14.113281 -34.449219 17.195312 -24.28125 28.902344 -24.28125 C 41.230469 -24.28125 46.160156 -34.265625 46.160156 -43.816406 C 46.160156 -53.800781 40.425781 -61.628906 25.453125 -61.628906 Z M 21.878906 -48.746094 C 30.382812 -48.746094 42.953125 -48.191406 42.953125 -42.644531 C 42.953125 -37.101562 32.910156 -36.546875 24.40625 -36.546875 C 15.898438 -36.546875 5.917969 -37.101562 5.917969 -42.644531 C 5.917969 -48.191406 15.589844 -48.746094 21.878906 -48.746094 Z M 21.878906 -48.746094 "/></g></g></g><g fill="#e85a4f" fill-opacity="1"><g transform="translate(223.015131, 184.300111)"><g><path d="M 0.617188 0 L 21.261719 0 C 19.597656 -1.664062 19.105469 -3.757812 19.105469 -7.273438 L 19.105469 -54.355469 C 19.105469 -57.867188 19.597656 -59.964844 21.261719 -61.628906 L 0.617188 -61.628906 C 2.28125 -59.964844 2.773438 -57.867188 2.773438 -54.355469 L 2.773438 -7.273438 C 2.773438 -3.757812 2.28125 -1.664062 0.617188 0 Z M 0.617188 0 "/></g></g></g><g fill="#e85a4f" fill-opacity="1"><g transform="translate(244.889217, 184.300111)"><g><path d="M 2.589844 -37.65625 C 5.667969 -37.65625 11.15625 -58.546875 15.097656 -58.546875 C 16.886719 -58.546875 17.007812 -56.511719 17.007812 -54.601562 L 17.007812 -7.273438 C 17.007812 -3.757812 16.515625 -1.664062 14.851562 0 L 35.496094 0 C 33.832031 -1.664062 33.339844 -3.757812 33.339844 -7.273438 L 33.339844 -54.601562 C 33.339844 -56.511719 33.464844 -58.546875 35.25 -58.546875 C 39.195312 -58.546875 44.679688 -37.65625 47.761719 -37.65625 C 48.625 -37.65625 49.117188 -38.332031 49.117188 -39.132812 L 49.117188 -61.628906 L 1.234375 -61.628906 L 1.234375 -39.132812 C 1.234375 -38.332031 1.726562 -37.65625 2.589844 -37.65625 Z M 2.589844 -37.65625 "/></g></g></g><g fill="#e85a4f" fill-opacity="1"><g transform="translate(209.228458, 202.435928)"><g><path d="M 7.90625 -1.125 L 7.90625 0 L 1.359375 0 L 1.359375 -9.015625 L 7.71875 -9.015625 L 7.71875 -7.90625 L 2.640625 -7.90625 L 2.640625 -5.125 L 7.171875 -5.125 L 7.171875 -4.03125 L 2.640625 -4.03125 L 2.640625 -1.125 Z M 7.90625 -1.125 "/></g></g></g><g fill="#e85a4f" fill-opacity="1"><g transform="translate(219.683741, 202.435928)"><g><path d="M 3.984375 0.109375 C 3.304688 0.109375 2.648438 0.00390625 2.015625 -0.203125 C 1.378906 -0.421875 0.882812 -0.695312 0.53125 -1.03125 L 1 -2.03125 C 1.34375 -1.726562 1.78125 -1.476562 2.3125 -1.28125 C 2.851562 -1.09375 3.410156 -1 3.984375 -1 C 4.734375 -1 5.289062 -1.125 5.65625 -1.375 C 6.03125 -1.625 6.21875 -1.960938 6.21875 -2.390625 C 6.21875 -2.691406 6.113281 -2.9375 5.90625 -3.125 C 5.707031 -3.320312 5.457031 -3.472656 5.15625 -3.578125 C 4.863281 -3.679688 4.445312 -3.800781 3.90625 -3.9375 C 3.226562 -4.09375 2.679688 -4.253906 2.265625 -4.421875 C 1.847656 -4.585938 1.488281 -4.835938 1.1875 -5.171875 C 0.894531 -5.515625 0.75 -5.972656 0.75 -6.546875 C 0.75 -7.023438 0.875 -7.457031 1.125 -7.84375 C 1.382812 -8.238281 1.769531 -8.550781 2.28125 -8.78125 C 2.800781 -9.007812 3.441406 -9.125 4.203125 -9.125 C 4.734375 -9.125 5.253906 -9.054688 5.765625 -8.921875 C 6.285156 -8.785156 6.734375 -8.585938 7.109375 -8.328125 L 6.671875 -7.296875 C 6.296875 -7.535156 5.894531 -7.71875 5.46875 -7.84375 C 5.039062 -7.96875 4.617188 -8.03125 4.203125 -8.03125 C 3.472656 -8.03125 2.925781 -7.894531 2.5625 -7.625 C 2.195312 -7.363281 2.015625 -7.019531 2.015625 -6.59375 C 2.015625 -6.289062 2.113281 -6.039062 2.3125 -5.84375 C 2.519531 -5.65625 2.773438 -5.503906 3.078125 -5.390625 C 3.390625 -5.285156 3.804688 -5.171875 4.328125 -5.046875 C 5.003906 -4.890625 5.550781 -4.726562 5.96875 -4.5625 C 6.382812 -4.394531 6.738281 -4.144531 7.03125 -3.8125 C 7.320312 -3.476562 7.46875 -3.03125 7.46875 -2.46875 C 7.46875 -1.988281 7.335938 -1.550781 7.078125 -1.15625 C 6.828125 -0.769531 6.4375 -0.460938 5.90625 -0.234375 C 5.382812 -0.00390625 4.742188 0.109375 3.984375 0.109375 Z M 3.984375 0.109375 "/></g></g></g><g fill="#e85a4f" fill-opacity="1"><g transform="translate(229.507379, 202.435928)"><g><path d="M 3.140625 -7.90625 L 0.046875 -7.90625 L 0.046875 -9.015625 L 7.515625 -9.015625 L 7.515625 -7.90625 L 4.421875 -7.90625 L 4.421875 0 L 3.140625 0 Z M 3.140625 -7.90625 "/></g></g></g><g fill="#e85a4f" fill-opacity="1"><g transform="translate(238.892732, 202.435928)"><g><path d="M 1.359375 -9.015625 L 5.15625 -9.015625 C 6.113281 -9.015625 6.957031 -8.828125 7.6875 -8.453125 C 8.425781 -8.078125 9 -7.546875 9.40625 -6.859375 C 9.820312 -6.179688 10.03125 -5.398438 10.03125 -4.515625 C 10.03125 -3.628906 9.820312 -2.84375 9.40625 -2.15625 C 9 -1.476562 8.425781 -0.945312 7.6875 -0.5625 C 6.957031 -0.1875 6.113281 0 5.15625 0 L 1.359375 0 Z M 5.078125 -1.125 C 5.804688 -1.125 6.445312 -1.265625 7 -1.546875 C 7.5625 -1.828125 7.988281 -2.222656 8.28125 -2.734375 C 8.582031 -3.242188 8.734375 -3.835938 8.734375 -4.515625 C 8.734375 -5.179688 8.582031 -5.769531 8.28125 -6.28125 C 7.988281 -6.789062 7.5625 -7.1875 7 -7.46875 C 6.445312 -7.757812 5.804688 -7.90625 5.078125 -7.90625 L 2.640625 -7.90625 L 2.640625 -1.125 Z M 5.078125 -1.125 "/></g></g></g><g fill="#e85a4f" fill-opacity="1"><g transform="translate(251.358969, 202.435928)"><g><path d="M 1.46875 0.078125 C 1.226562 0.078125 1.019531 -0.00390625 0.84375 -0.171875 C 0.675781 -0.335938 0.59375 -0.550781 0.59375 -0.8125 C 0.59375 -1.0625 0.675781 -1.269531 0.84375 -1.4375 C 1.019531 -1.601562 1.226562 -1.6875 1.46875 -1.6875 C 1.707031 -1.6875 1.90625 -1.601562 2.0625 -1.4375 C 2.226562 -1.28125 2.3125 -1.070312 2.3125 -0.8125 C 2.3125 -0.550781 2.226562 -0.335938 2.0625 -0.171875 C 1.894531 -0.00390625 1.695312 0.078125 1.46875 0.078125 Z M 1.46875 0.078125 "/></g></g></g><g fill="#e85a4f" fill-opacity="1"><g transform="translate(256.103672, 202.435928)"><g/></g></g><g fill="#e85a4f" fill-opacity="1"><g transform="translate(261.389784, 202.435928)"><g><path d="M 6.953125 -1.125 L 6.953125 0 L 0.484375 0 L 0.484375 -0.875 L 4.15625 -4.421875 C 4.601562 -4.847656 4.898438 -5.21875 5.046875 -5.53125 C 5.203125 -5.84375 5.28125 -6.160156 5.28125 -6.484375 C 5.28125 -6.953125 5.113281 -7.316406 4.78125 -7.578125 C 4.457031 -7.847656 3.984375 -7.984375 3.359375 -7.984375 C 2.367188 -7.984375 1.601562 -7.65625 1.0625 -7 L 0.1875 -7.765625 C 0.53125 -8.191406 0.988281 -8.523438 1.5625 -8.765625 C 2.132812 -9.003906 2.773438 -9.125 3.484375 -9.125 C 4.421875 -9.125 5.171875 -8.894531 5.734375 -8.4375 C 6.296875 -7.988281 6.578125 -7.378906 6.578125 -6.609375 C 6.578125 -6.128906 6.472656 -5.675781 6.265625 -5.25 C 6.054688 -4.820312 5.664062 -4.332031 5.09375 -3.78125 L 2.328125 -1.125 Z M 6.953125 -1.125 "/></g></g></g><g fill="#e85a4f" fill-opacity="1"><g transform="translate(270.607559, 202.435928)"><g><path d="M 4.3125 0.109375 C 3.59375 0.109375 2.957031 -0.0703125 2.40625 -0.4375 C 1.851562 -0.8125 1.414062 -1.34375 1.09375 -2.03125 C 0.78125 -2.726562 0.625 -3.554688 0.625 -4.515625 C 0.625 -5.460938 0.78125 -6.285156 1.09375 -6.984375 C 1.414062 -7.679688 1.851562 -8.210938 2.40625 -8.578125 C 2.957031 -8.941406 3.59375 -9.125 4.3125 -9.125 C 5.007812 -9.125 5.632812 -8.941406 6.1875 -8.578125 C 6.75 -8.210938 7.1875 -7.679688 7.5 -6.984375 C 7.820312 -6.285156 7.984375 -5.460938 7.984375 -4.515625 C 7.984375 -3.554688 7.820312 -2.726562 7.5 -2.03125 C 7.1875 -1.34375 6.75 -0.8125 6.1875 -0.4375 C 5.632812 -0.0703125 5.007812 0.109375 4.3125 0.109375 Z M 4.3125 -1.046875 C 5.03125 -1.046875 5.601562 -1.34375 6.03125 -1.9375 C 6.46875 -2.53125 6.6875 -3.390625 6.6875 -4.515625 C 6.6875 -5.640625 6.46875 -6.5 6.03125 -7.09375 C 5.601562 -7.6875 5.03125 -7.984375 4.3125 -7.984375 C 3.570312 -7.984375 2.984375 -7.6875 2.546875 -7.09375 C 2.117188 -6.5 1.90625 -5.640625 1.90625 -4.515625 C 1.90625 -3.390625 2.117188 -2.53125 2.546875 -1.9375 C 2.984375 -1.34375 3.570312 -1.046875 4.3125 -1.046875 Z M 4.3125 -1.046875 "/></g></g></g><g fill="#e85a4f" fill-opacity="1"><g transform="translate(281.02417, 202.435928)"><g><path d="M 6.953125 -1.125 L 6.953125 0 L 0.484375 0 L 0.484375 -0.875 L 4.15625 -4.421875 C 4.601562 -4.847656 4.898438 -5.21875 5.046875 -5.53125 C 5.203125 -5.84375 5.28125 -6.160156 5.28125 -6.484375 C 5.28125 -6.953125 5.113281 -7.316406 4.78125 -7.578125 C 4.457031 -7.847656 3.984375 -7.984375 3.359375 -7.984375 C 2.367188 -7.984375 1.601562 -7.65625 1.0625 -7 L 0.1875 -7.765625 C 0.53125 -8.191406 0.988281 -8.523438 1.5625 -8.765625 C 2.132812 -9.003906 2.773438 -9.125 3.484375 -9.125 C 4.421875 -9.125 5.171875 -8.894531 5.734375 -8.4375 C 6.296875 -7.988281 6.578125 -7.378906 6.578125 -6.609375 C 6.578125 -6.128906 6.472656 -5.675781 6.265625 -5.25 C 6.054688 -4.820312 5.664062 -4.332031 5.09375 -3.78125 L 2.328125 -1.125 Z M 6.953125 -1.125 "/></g></g></g><g fill="#e85a4f" fill-opacity="1"><g transform="translate(290.241945, 202.435928)"><g><path d="M 4.078125 -5.234375 C 4.960938 -5.148438 5.632812 -4.875 6.09375 -4.40625 C 6.5625 -3.945312 6.796875 -3.363281 6.796875 -2.65625 C 6.796875 -2.132812 6.664062 -1.664062 6.40625 -1.25 C 6.144531 -0.832031 5.757812 -0.5 5.25 -0.25 C 4.738281 -0.0078125 4.113281 0.109375 3.375 0.109375 C 2.726562 0.109375 2.109375 0.0078125 1.515625 -0.1875 C 0.921875 -0.382812 0.4375 -0.65625 0.0625 -1 L 0.65625 -2.015625 C 0.96875 -1.722656 1.363281 -1.488281 1.84375 -1.3125 C 2.320312 -1.132812 2.832031 -1.046875 3.375 -1.046875 C 4.039062 -1.046875 4.5625 -1.1875 4.9375 -1.46875 C 5.3125 -1.75 5.5 -2.140625 5.5 -2.640625 C 5.5 -3.140625 5.3125 -3.523438 4.9375 -3.796875 C 4.570312 -4.078125 4.019531 -4.21875 3.28125 -4.21875 L 2.546875 -4.21875 L 2.546875 -5.125 L 4.828125 -7.90625 L 0.484375 -7.90625 L 0.484375 -9.015625 L 6.4375 -9.015625 L 6.4375 -8.140625 Z M 4.078125 -5.234375 "/></g></g></g></svg>