<svg xmlns="http://www.w3.org/2000/svg" xmlns:xlink="http://www.w3.org/1999/xlink" zoomAndPan="magnify" preserveAspectRatio="xMidYMid meet" version="1.0" viewBox="117.85 156.24 139.3 58.44"><defs><g/></defs><g fill="#e85a4f" fill-opacity="1"><g transform="translate(114.775947, 198.743526)"><g><path d="M 3.078125 0 L 3.078125 -26.265625 L 12.140625 -26.265625 L 12.140625 -23.5 L 12.234375 -23.5 C 14.585938 -25.851562 17.097656 -27.03125 19.765625 -27.03125 C 21.671875 -27.03125 23.460938 -26.640625 25.140625 -25.859375 C 26.816406 -25.078125 28.082031 -23.863281 28.9375 -22.21875 C 31.59375 -25.425781 34.492188 -27.03125 37.640625 -27.03125 C 40.429688 -27.03125 42.832031 -26.242188 44.84375 -24.671875 C 46.863281 -23.109375 47.875 -20.65625 47.875 -17.3125 L 47.875 0 L 38.8125 0 L 38.8125 -14.84375 C 38.8125 -16.25 38.425781 -17.421875 37.65625 -18.359375 C 36.882812 -19.296875 35.734375 -19.765625 34.203125 -19.765625 C 32.867188 -19.765625 31.851562 -19.363281 31.15625 -18.5625 C 30.457031 -17.757812 30.070312 -16.796875 30 -15.671875 L 30 0 L 20.9375 0 L 20.9375 -14.84375 C 20.9375 -16.25 20.550781 -17.421875 19.78125 -18.359375 C 19.019531 -19.296875 17.867188 -19.765625 16.328125 -19.765625 C 14.929688 -19.765625 13.882812 -19.328125 13.1875 -18.453125 C 12.488281 -17.585938 12.140625 -16.554688 12.140625 -15.359375 L 12.140625 0 Z M 3.078125 0 "/></g></g></g><g fill="#e85a4f" fill-opacity="1"><g transform="translate(160.393072, 198.743526)"><g><path d="M 29.640625 -11.875 L 10.59375 -11.875 C 10.59375 -10.03125 11.191406 -8.664062 12.390625 -7.78125 C 13.585938 -6.894531 14.882812 -6.453125 16.28125 -6.453125 C 17.75 -6.453125 18.910156 -6.644531 19.765625 -7.03125 C 20.617188 -7.425781 21.59375 -8.207031 22.6875 -9.375 L 29.234375 -6.09375 C 26.503906 -1.519531 21.960938 0.765625 15.609375 0.765625 C 11.648438 0.765625 8.253906 -0.585938 5.421875 -3.296875 C 2.585938 -6.015625 1.171875 -9.285156 1.171875 -13.109375 C 1.171875 -16.929688 2.585938 -20.207031 5.421875 -22.9375 C 8.253906 -25.664062 11.648438 -27.03125 15.609375 -27.03125 C 19.773438 -27.03125 23.164062 -25.828125 25.78125 -23.421875 C 28.394531 -21.015625 29.703125 -17.578125 29.703125 -13.109375 C 29.703125 -12.492188 29.679688 -12.082031 29.640625 -11.875 Z M 10.859375 -16.890625 L 20.84375 -16.890625 C 20.632812 -18.253906 20.09375 -19.300781 19.21875 -20.03125 C 18.351562 -20.769531 17.238281 -21.140625 15.875 -21.140625 C 14.375 -21.140625 13.175781 -20.75 12.28125 -19.96875 C 11.394531 -19.1875 10.921875 -18.160156 10.859375 -16.890625 Z M 10.859375 -16.890625 "/></g></g></g><g fill="#e85a4f" fill-opacity="1"><g transform="translate(186.452086, 198.743526)"><g><path d="M 3.078125 0 L 3.078125 -26.265625 L 12.140625 -26.265625 L 12.140625 -22.484375 L 12.234375 -22.484375 C 12.304688 -22.617188 12.414062 -22.785156 12.5625 -22.984375 C 12.71875 -23.191406 13.050781 -23.550781 13.5625 -24.0625 C 14.082031 -24.570312 14.628906 -25.03125 15.203125 -25.4375 C 15.785156 -25.851562 16.535156 -26.222656 17.453125 -26.546875 C 18.378906 -26.867188 19.320312 -27.03125 20.28125 -27.03125 C 21.269531 -27.03125 22.238281 -26.894531 23.1875 -26.625 C 24.144531 -26.351562 24.847656 -26.082031 25.296875 -25.8125 L 26.015625 -25.390625 L 22.21875 -17.71875 C 21.09375 -18.675781 19.523438 -19.15625 17.515625 -19.15625 C 16.421875 -19.15625 15.476562 -18.914062 14.6875 -18.4375 C 13.90625 -17.957031 13.351562 -17.375 13.03125 -16.6875 C 12.707031 -16.007812 12.476562 -15.429688 12.34375 -14.953125 C 12.207031 -14.472656 12.140625 -14.097656 12.140625 -13.828125 L 12.140625 0 Z M 3.078125 0 "/></g></g></g><g fill="#e85a4f" fill-opacity="1"><g transform="translate(207.13518, 198.743526)"><g><path d="M 3.9375 -40.90625 C 5 -41.96875 6.265625 -42.5 7.734375 -42.5 C 9.203125 -42.5 10.460938 -41.96875 11.515625 -40.90625 C 12.578125 -39.851562 13.109375 -38.59375 13.109375 -37.125 C 13.109375 -35.65625 12.578125 -34.390625 11.515625 -33.328125 C 10.460938 -32.273438 9.203125 -31.75 7.734375 -31.75 C 6.265625 -31.75 5 -32.273438 3.9375 -33.328125 C 2.882812 -34.390625 2.359375 -35.65625 2.359375 -37.125 C 2.359375 -38.59375 2.882812 -39.851562 3.9375 -40.90625 Z M 3.078125 -26.265625 L 3.078125 0 L 12.140625 0 L 12.140625 -26.265625 Z M 3.078125 -26.265625 "/></g></g></g><g fill="#e85a4f" fill-opacity="1"><g transform="translate(217.783226, 198.743526)"><g><path d="M 4.609375 -26.265625 L 4.609375 -36.046875 L 13.671875 -36.046875 L 13.671875 -26.265625 L 19.203125 -26.265625 L 19.203125 -19.359375 L 13.671875 -19.359375 L 13.671875 -11.015625 C 13.671875 -8.585938 14.351562 -7.375 15.71875 -7.375 C 16.0625 -7.375 16.421875 -7.441406 16.796875 -7.578125 C 17.171875 -7.710938 17.460938 -7.847656 17.671875 -7.984375 L 17.96875 -8.1875 L 20.21875 -0.875 C 18.28125 0.21875 16.0625 0.765625 13.5625 0.765625 C 11.863281 0.765625 10.398438 0.46875 9.171875 -0.125 C 7.941406 -0.726562 7.007812 -1.53125 6.375 -2.53125 C 5.738281 -3.539062 5.285156 -4.597656 5.015625 -5.703125 C 4.742188 -6.816406 4.609375 -8.003906 4.609375 -9.265625 L 4.609375 -19.359375 L 0.8125 -19.359375 L 0.8125 -26.265625 Z M 4.609375 -26.265625 "/></g></g></g><g fill="#e85a4f" fill-opacity="1"><g transform="translate(233.192787, 198.743526)"><g/></g></g><g fill="#e85a4f" fill-opacity="1"><g transform="translate(242.356047, 198.743526)"><g><path d="M 8.90625 -10.953125 C 10.539062 -10.953125 11.929688 -10.378906 13.078125 -9.234375 C 14.222656 -8.097656 14.796875 -6.707031 14.796875 -5.0625 C 14.796875 -3.457031 14.222656 -2.082031 13.078125 -0.9375 C 11.929688 0.195312 10.539062 0.765625 8.90625 0.765625 C 7.300781 0.765625 5.925781 0.195312 4.78125 -0.9375 C 3.644531 -2.082031 3.078125 -3.457031 3.078125 -5.0625 C 3.078125 -6.707031 3.644531 -8.097656 4.78125 -9.234375 C 5.925781 -10.378906 7.300781 -10.953125 8.90625 -10.953125 Z M 8.90625 -10.953125 "/></g></g></g><g fill="#2b1511" fill-opacity="1"><g transform="translate(141.940323, 212.619406)"><g><path d="M 3.4375 -5.5 C 3.90625 -5.5 4.328125 -5.378906 4.703125 -5.140625 C 5.085938 -4.898438 5.390625 -4.566406 5.609375 -4.140625 C 5.828125 -3.710938 5.9375 -3.234375 5.9375 -2.703125 C 5.9375 -2.160156 5.828125 -1.675781 5.609375 -1.25 C 5.390625 -0.832031 5.085938 -0.503906 4.703125 -0.265625 C 4.328125 -0.0234375 3.914062 0.09375 3.46875 0.09375 C 3.101562 0.09375 2.765625 0.015625 2.453125 -0.140625 C 2.148438 -0.296875 1.90625 -0.488281 1.71875 -0.71875 L 1.71875 1.5625 C 1.71875 1.707031 1.671875 1.828125 1.578125 1.921875 C 1.484375 2.015625 1.363281 2.0625 1.21875 2.0625 C 1.082031 2.0625 0.96875 2.015625 0.875 1.921875 C 0.78125 1.828125 0.734375 1.707031 0.734375 1.5625 L 0.734375 -4.921875 C 0.734375 -5.066406 0.773438 -5.1875 0.859375 -5.28125 C 0.953125 -5.375 1.070312 -5.421875 1.21875 -5.421875 C 1.363281 -5.421875 1.484375 -5.375 1.578125 -5.28125 C 1.671875 -5.1875 1.71875 -5.066406 1.71875 -4.921875 L 1.71875 -4.625 C 1.875 -4.863281 2.109375 -5.066406 2.421875 -5.234375 C 2.742188 -5.410156 3.082031 -5.5 3.4375 -5.5 Z M 3.328125 -0.8125 C 3.648438 -0.8125 3.9375 -0.894531 4.1875 -1.0625 C 4.4375 -1.226562 4.628906 -1.453125 4.765625 -1.734375 C 4.910156 -2.023438 4.984375 -2.347656 4.984375 -2.703125 C 4.984375 -3.054688 4.910156 -3.375 4.765625 -3.65625 C 4.628906 -3.945312 4.4375 -4.175781 4.1875 -4.34375 C 3.9375 -4.507812 3.648438 -4.59375 3.328125 -4.59375 C 3.003906 -4.59375 2.710938 -4.507812 2.453125 -4.34375 C 2.203125 -4.1875 2.003906 -3.960938 1.859375 -3.671875 C 1.722656 -3.378906 1.65625 -3.054688 1.65625 -2.703125 C 1.65625 -2.347656 1.722656 -2.023438 1.859375 -1.734375 C 2.003906 -1.441406 2.203125 -1.210938 2.453125 -1.046875 C 2.710938 -0.890625 3.003906 -0.8125 3.328125 -0.8125 Z M 3.328125 -0.8125 "/></g></g></g><g fill="#2b1511" fill-opacity="1"><g transform="translate(154.985219, 212.619406)"><g><path d="M 1.65625 -0.5 C 1.65625 -0.351562 1.609375 -0.234375 1.515625 -0.140625 C 1.421875 -0.046875 1.304688 0 1.171875 0 C 1.023438 0 0.90625 -0.046875 0.8125 -0.140625 C 0.726562 -0.234375 0.6875 -0.351562 0.6875 -0.5 L 0.6875 -4.953125 C 0.6875 -5.097656 0.726562 -5.21875 0.8125 -5.3125 C 0.90625 -5.40625 1.023438 -5.453125 1.171875 -5.453125 C 1.304688 -5.453125 1.421875 -5.40625 1.515625 -5.3125 C 1.609375 -5.21875 1.65625 -5.097656 1.65625 -4.953125 Z M 1.15625 -6.140625 C 0.957031 -6.140625 0.816406 -6.175781 0.734375 -6.25 C 0.648438 -6.320312 0.609375 -6.4375 0.609375 -6.59375 L 0.609375 -6.75 C 0.609375 -6.914062 0.65625 -7.03125 0.75 -7.09375 C 0.84375 -7.164062 0.984375 -7.203125 1.171875 -7.203125 C 1.359375 -7.203125 1.492188 -7.164062 1.578125 -7.09375 C 1.671875 -7.019531 1.71875 -6.90625 1.71875 -6.75 L 1.71875 -6.59375 C 1.71875 -6.425781 1.671875 -6.304688 1.578125 -6.234375 C 1.492188 -6.171875 1.351562 -6.140625 1.15625 -6.140625 Z M 1.15625 -6.140625 "/></g></g></g><g fill="#2b1511" fill-opacity="1"><g transform="translate(164.043715, 212.619406)"><g><path d="M 3.484375 -5.53125 C 4.722656 -5.53125 5.34375 -4.785156 5.34375 -3.296875 L 5.34375 -0.5 C 5.34375 -0.351562 5.296875 -0.234375 5.203125 -0.140625 C 5.109375 -0.046875 4.988281 0 4.84375 0 C 4.707031 0 4.59375 -0.046875 4.5 -0.140625 C 4.40625 -0.234375 4.359375 -0.351562 4.359375 -0.5 L 4.359375 -3.296875 C 4.359375 -3.691406 4.265625 -4.007812 4.078125 -4.25 C 3.898438 -4.5 3.597656 -4.625 3.171875 -4.625 C 2.898438 -4.625 2.648438 -4.5625 2.421875 -4.4375 C 2.203125 -4.320312 2.03125 -4.160156 1.90625 -3.953125 C 1.78125 -3.753906 1.71875 -3.535156 1.71875 -3.296875 L 1.71875 -0.5 C 1.71875 -0.351562 1.671875 -0.234375 1.578125 -0.140625 C 1.484375 -0.046875 1.363281 0 1.21875 0 C 1.070312 0 0.953125 -0.046875 0.859375 -0.140625 C 0.773438 -0.234375 0.734375 -0.351562 0.734375 -0.5 L 0.734375 -4.90625 C 0.734375 -5.039062 0.78125 -5.15625 0.875 -5.25 C 0.96875 -5.351562 1.082031 -5.40625 1.21875 -5.40625 C 1.363281 -5.40625 1.484375 -5.351562 1.578125 -5.25 C 1.671875 -5.15625 1.71875 -5.039062 1.71875 -4.90625 L 1.71875 -4.546875 C 1.894531 -4.816406 2.140625 -5.046875 2.453125 -5.234375 C 2.773438 -5.429688 3.117188 -5.53125 3.484375 -5.53125 Z M 3.484375 -5.53125 "/></g></g></g><g fill="#2b1511" fill-opacity="1"><g transform="translate(176.831085, 212.619406)"><g><path d="M 5.46875 -2.90625 C 5.46875 -2.78125 5.414062 -2.675781 5.3125 -2.59375 C 5.21875 -2.507812 5.109375 -2.46875 4.984375 -2.46875 L 1.34375 -2.46875 C 1.394531 -1.96875 1.585938 -1.5625 1.921875 -1.25 C 2.253906 -0.945312 2.660156 -0.796875 3.140625 -0.796875 C 3.472656 -0.796875 3.742188 -0.84375 3.953125 -0.9375 C 4.160156 -1.039062 4.34375 -1.164062 4.5 -1.3125 C 4.601562 -1.375 4.703125 -1.40625 4.796875 -1.40625 C 4.910156 -1.40625 5.003906 -1.363281 5.078125 -1.28125 C 5.160156 -1.207031 5.203125 -1.113281 5.203125 -1 C 5.203125 -0.851562 5.132812 -0.722656 5 -0.609375 C 4.800781 -0.410156 4.535156 -0.238281 4.203125 -0.09375 C 3.878906 0.0390625 3.546875 0.109375 3.203125 0.109375 C 2.640625 0.109375 2.144531 -0.00390625 1.71875 -0.234375 C 1.300781 -0.472656 0.976562 -0.800781 0.75 -1.21875 C 0.519531 -1.644531 0.40625 -2.125 0.40625 -2.65625 C 0.40625 -3.226562 0.519531 -3.734375 0.75 -4.171875 C 0.988281 -4.609375 1.300781 -4.941406 1.6875 -5.171875 C 2.082031 -5.410156 2.503906 -5.53125 2.953125 -5.53125 C 3.390625 -5.53125 3.800781 -5.414062 4.1875 -5.1875 C 4.570312 -4.957031 4.878906 -4.644531 5.109375 -4.25 C 5.347656 -3.851562 5.46875 -3.40625 5.46875 -2.90625 Z M 2.953125 -4.625 C 2.566406 -4.625 2.234375 -4.515625 1.953125 -4.296875 C 1.671875 -4.078125 1.484375 -3.742188 1.390625 -3.296875 L 4.4375 -3.296875 L 4.4375 -3.375 C 4.40625 -3.738281 4.238281 -4.035156 3.9375 -4.265625 C 3.644531 -4.503906 3.316406 -4.625 2.953125 -4.625 Z M 2.953125 -4.625 "/></g></g></g><g fill="#2b1511" fill-opacity="1"><g transform="translate(189.422739, 212.619406)"><g><path d="M 3.078125 -5.53125 C 3.617188 -5.53125 4.070312 -5.441406 4.4375 -5.265625 C 4.800781 -5.097656 4.984375 -4.878906 4.984375 -4.609375 C 4.984375 -4.492188 4.941406 -4.390625 4.859375 -4.296875 C 4.785156 -4.203125 4.691406 -4.15625 4.578125 -4.15625 C 4.484375 -4.15625 4.410156 -4.164062 4.359375 -4.1875 C 4.316406 -4.21875 4.25 -4.265625 4.15625 -4.328125 C 4.113281 -4.367188 4.046875 -4.414062 3.953125 -4.46875 C 3.878906 -4.507812 3.765625 -4.546875 3.609375 -4.578125 C 3.453125 -4.609375 3.316406 -4.625 3.203125 -4.625 C 2.835938 -4.625 2.515625 -4.539062 2.234375 -4.375 C 1.960938 -4.207031 1.75 -3.976562 1.59375 -3.6875 C 1.445312 -3.394531 1.375 -3.070312 1.375 -2.71875 C 1.375 -2.351562 1.445312 -2.023438 1.59375 -1.734375 C 1.75 -1.441406 1.957031 -1.210938 2.21875 -1.046875 C 2.488281 -0.878906 2.796875 -0.796875 3.140625 -0.796875 C 3.503906 -0.796875 3.796875 -0.851562 4.015625 -0.96875 C 4.054688 -1 4.117188 -1.046875 4.203125 -1.109375 C 4.273438 -1.160156 4.335938 -1.195312 4.390625 -1.21875 C 4.441406 -1.25 4.503906 -1.265625 4.578125 -1.265625 C 4.710938 -1.265625 4.816406 -1.222656 4.890625 -1.140625 C 4.972656 -1.054688 5.015625 -0.941406 5.015625 -0.796875 C 5.015625 -0.660156 4.921875 -0.519531 4.734375 -0.375 C 4.554688 -0.238281 4.316406 -0.125 4.015625 -0.03125 C 3.710938 0.0625 3.382812 0.109375 3.03125 0.109375 C 2.507812 0.109375 2.046875 -0.0078125 1.640625 -0.25 C 1.242188 -0.5 0.9375 -0.835938 0.71875 -1.265625 C 0.507812 -1.703125 0.40625 -2.1875 0.40625 -2.71875 C 0.40625 -3.238281 0.515625 -3.710938 0.734375 -4.140625 C 0.960938 -4.578125 1.28125 -4.914062 1.6875 -5.15625 C 2.09375 -5.40625 2.554688 -5.53125 3.078125 -5.53125 Z M 3.078125 -5.53125 "/></g></g></g><g fill="#2b1511" fill-opacity="1"><g transform="translate(201.437552, 212.619406)"><g><path d="M 5.84375 -2.703125 C 5.84375 -2.160156 5.722656 -1.675781 5.484375 -1.25 C 5.242188 -0.832031 4.914062 -0.5 4.5 -0.25 C 4.082031 -0.0078125 3.625 0.109375 3.125 0.109375 C 2.625 0.109375 2.164062 -0.0078125 1.75 -0.25 C 1.332031 -0.5 1.003906 -0.832031 0.765625 -1.25 C 0.523438 -1.675781 0.40625 -2.160156 0.40625 -2.703125 C 0.40625 -3.234375 0.523438 -3.71875 0.765625 -4.15625 C 1.003906 -4.59375 1.332031 -4.929688 1.75 -5.171875 C 2.164062 -5.410156 2.625 -5.53125 3.125 -5.53125 C 3.625 -5.53125 4.082031 -5.410156 4.5 -5.171875 C 4.914062 -4.929688 5.242188 -4.59375 5.484375 -4.15625 C 5.722656 -3.71875 5.84375 -3.234375 5.84375 -2.703125 Z M 4.875 -2.703125 C 4.875 -3.078125 4.796875 -3.410156 4.640625 -3.703125 C 4.484375 -3.992188 4.269531 -4.21875 4 -4.375 C 3.738281 -4.539062 3.445312 -4.625 3.125 -4.625 C 2.800781 -4.625 2.503906 -4.539062 2.234375 -4.375 C 1.972656 -4.21875 1.765625 -3.992188 1.609375 -3.703125 C 1.453125 -3.410156 1.375 -3.078125 1.375 -2.703125 C 1.375 -2.335938 1.453125 -2.007812 1.609375 -1.71875 C 1.765625 -1.4375 1.972656 -1.210938 2.234375 -1.046875 C 2.503906 -0.878906 2.800781 -0.796875 3.125 -0.796875 C 3.445312 -0.796875 3.738281 -0.878906 4 -1.046875 C 4.269531 -1.210938 4.484375 -1.4375 4.640625 -1.71875 C 4.796875 -2.007812 4.875 -2.335938 4.875 -2.703125 Z M 4.875 -2.703125 "/></g></g></g><g fill="#2b1511" fill-opacity="1"><g transform="translate(214.40004, 212.619406)"><g><path d="M 3.484375 -5.53125 C 4.722656 -5.53125 5.34375 -4.785156 5.34375 -3.296875 L 5.34375 -0.5 C 5.34375 -0.351562 5.296875 -0.234375 5.203125 -0.140625 C 5.109375 -0.046875 4.988281 0 4.84375 0 C 4.707031 0 4.59375 -0.046875 4.5 -0.140625 C 4.40625 -0.234375 4.359375 -0.351562 4.359375 -0.5 L 4.359375 -3.296875 C 4.359375 -3.691406 4.265625 -4.007812 4.078125 -4.25 C 3.898438 -4.5 3.597656 -4.625 3.171875 -4.625 C 2.898438 -4.625 2.648438 -4.5625 2.421875 -4.4375 C 2.203125 -4.320312 2.03125 -4.160156 1.90625 -3.953125 C 1.78125 -3.753906 1.71875 -3.535156 1.71875 -3.296875 L 1.71875 -0.5 C 1.71875 -0.351562 1.671875 -0.234375 1.578125 -0.140625 C 1.484375 -0.046875 1.363281 0 1.21875 0 C 1.070312 0 0.953125 -0.046875 0.859375 -0.140625 C 0.773438 -0.234375 0.734375 -0.351562 0.734375 -0.5 L 0.734375 -4.90625 C 0.734375 -5.039062 0.78125 -5.15625 0.875 -5.25 C 0.96875 -5.351562 1.082031 -5.40625 1.21875 -5.40625 C 1.363281 -5.40625 1.484375 -5.351562 1.578125 -5.25 C 1.671875 -5.15625 1.71875 -5.039062 1.71875 -4.90625 L 1.71875 -4.546875 C 1.894531 -4.816406 2.140625 -5.046875 2.453125 -5.234375 C 2.773438 -5.429688 3.117188 -5.53125 3.484375 -5.53125 Z M 3.484375 -5.53125 "/></g></g></g><g fill="#2b1511" fill-opacity="1"><g transform="translate(227.18741, 212.619406)"><g><path d="M 5.46875 -2.90625 C 5.46875 -2.78125 5.414062 -2.675781 5.3125 -2.59375 C 5.21875 -2.507812 5.109375 -2.46875 4.984375 -2.46875 L 1.34375 -2.46875 C 1.394531 -1.96875 1.585938 -1.5625 1.921875 -1.25 C 2.253906 -0.945312 2.660156 -0.796875 3.140625 -0.796875 C 3.472656 -0.796875 3.742188 -0.84375 3.953125 -0.9375 C 4.160156 -1.039062 4.34375 -1.164062 4.5 -1.3125 C 4.601562 -1.375 4.703125 -1.40625 4.796875 -1.40625 C 4.910156 -1.40625 5.003906 -1.363281 5.078125 -1.28125 C 5.160156 -1.207031 5.203125 -1.113281 5.203125 -1 C 5.203125 -0.851562 5.132812 -0.722656 5 -0.609375 C 4.800781 -0.410156 4.535156 -0.238281 4.203125 -0.09375 C 3.878906 0.0390625 3.546875 0.109375 3.203125 0.109375 C 2.640625 0.109375 2.144531 -0.00390625 1.71875 -0.234375 C 1.300781 -0.472656 0.976562 -0.800781 0.75 -1.21875 C 0.519531 -1.644531 0.40625 -2.125 0.40625 -2.65625 C 0.40625 -3.226562 0.519531 -3.734375 0.75 -4.171875 C 0.988281 -4.609375 1.300781 -4.941406 1.6875 -5.171875 C 2.082031 -5.410156 2.503906 -5.53125 2.953125 -5.53125 C 3.390625 -5.53125 3.800781 -5.414062 4.1875 -5.1875 C 4.570312 -4.957031 4.878906 -4.644531 5.109375 -4.25 C 5.347656 -3.851562 5.46875 -3.40625 5.46875 -2.90625 Z M 2.953125 -4.625 C 2.566406 -4.625 2.234375 -4.515625 1.953125 -4.296875 C 1.671875 -4.078125 1.484375 -3.742188 1.390625 -3.296875 L 4.4375 -3.296875 L 4.4375 -3.375 C 4.40625 -3.738281 4.238281 -4.035156 3.9375 -4.265625 C 3.644531 -4.503906 3.316406 -4.625 2.953125 -4.625 Z M 2.953125 -4.625 "/></g></g></g></svg>