<svg xmlns="http://www.w3.org/2000/svg" xmlns:xlink="http://www.w3.org/1999/xlink" zoomAndPan="magnify" preserveAspectRatio="xMidYMid meet" version="1.0" viewBox="27.98 150.29 319.5 67.15"><defs><g/><clipPath id="a3f11945be"><path d="M 31.75 150.6875 L 343.75 150.6875 L 343.75 217.4375 L 31.75 217.4375 Z M 31.75 150.6875 " clip-rule="nonzero"/></clipPath></defs><g clip-path="url(#a3f11945be)"><path fill="#d8c3a5" d="M 288.050781 162.570312 C 292.675781 162.339844 297.277344 161.984375 301.890625 161.703125 C 311.140625 161.191406 320.296875 160.347656 329.496094 159.640625 C 329.046875 162.003906 328.625 164.457031 329.953125 166.488281 C 329.953125 166.488281 331.378906 166.304688 333.140625 165.964844 C 334.90625 165.644531 337.023438 165.261719 338.4375 165.003906 C 350.390625 168.492188 348.742188 176.691406 343.496094 183.292969 C 342.132812 184.6875 340.59375 186.261719 338.839844 187.867188 C 337.367188 187.902344 335.890625 187.933594 334.429688 187.964844 C 327.785156 188.148438 321.234375 188.46875 314.628906 189.023438 C 308.0625 189.421875 301.46875 189.957031 294.789062 190.550781 C 281.453125 191.589844 277.503906 192.761719 263.085938 192.941406 C 242.859375 192.625 283.171875 191.367188 263.085938 192.941406 C 286.9375 192.105469 248.164062 194.65625 272.425781 193.332031 C 278.5 193.027344 274.832031 192.722656 280.867188 192.421875 C 286.917969 192.203125 292.9375 191.980469 298.925781 191.765625 C 304.933594 191.546875 310.882812 191.523438 316.84375 191.429688 C 322.824219 191.289062 328.734375 191.332031 334.667969 191.390625 C 330.195312 194.75 324.777344 197.597656 318.207031 198.550781 C 302.542969 199.578125 287.089844 200.589844 271.773438 201.59375 C 271.703125 200.46875 259.800781 202.515625 249.273438 203.191406 C 238.753906 203.792969 228.386719 201.722656 217.953125 201.964844 C 197.078125 202.519531 155.515625 208.988281 155.226562 209.730469 C 155.121094 209.742188 155.019531 209.75 154.921875 209.757812 C 155.019531 209.75 155.121094 209.742188 155.226562 209.730469 C 154.96875 210.386719 155.164062 210.863281 157.84375 210.675781 C 155.164062 210.863281 154.96875 210.386719 155.226562 209.730469 C 197.558594 205.652344 227.46875 203.71875 270.03125 201.722656 C 237.019531 203.929688 214.484375 206.53125 182.015625 209.226562 C 149.554688 211.90625 116.90625 214.617188 83.234375 216.683594 C 80.371094 216.859375 74.625 217.207031 71.753906 217.382812 C 60.148438 214.71875 48.617188 214.273438 37.160156 214.929688 C 39.828125 209.175781 27.960938 198.667969 50.984375 199.578125 C 50.945312 198.460938 50.867188 196.226562 50.824219 195.109375 C 39.234375 192.984375 31.257812 188.113281 28.714844 183.101562 C 27.542969 180.605469 27.691406 178.011719 29.789062 175.703125 C 31.972656 173.382812 35.613281 171.359375 41.320312 169.910156 C 66.925781 163.964844 101.433594 166.351562 132.804688 161.996094 C 155.648438 159.351562 178.460938 156.597656 201.402344 157.054688 C 232.980469 157.96875 257.429688 153.941406 288.921875 154.945312 C 294.628906 154.851562 302.363281 153.339844 309.414062 152.21875 C 316.433594 151.023438 322.695312 150.0625 325.664062 151.347656 C 329.839844 152.367188 330.242188 154.707031 329.875 157.429688 C 320.582031 158.546875 311.339844 159.828125 302.015625 160.714844 C 297.363281 161.1875 292.734375 161.71875 288.089844 162.121094 C 283.441406 162.503906 278.808594 162.886719 274.183594 163.265625 " fill-opacity="1" fill-rule="nonzero"/></g><g fill="#e85a4f" fill-opacity="1"><g transform="translate(124.430006, 199.868965)"><g><path d="M 47.503906 10.804688 C 45.714844 11.445312 42.773438 11.765625 40.984375 10.804688 C 39.128906 9.78125 39.832031 6.96875 40.214844 5.308594 C 40.984375 1.855469 42.328125 -1.535156 43.667969 -4.859375 C 44.4375 -6.585938 45.140625 -8.375 45.90625 -10.167969 C 46.097656 -10.550781 47.761719 -14.707031 47.699219 -14.707031 C 47.570312 -14.707031 47.378906 -14.515625 47.25 -14.257812 C 49.488281 -18.925781 53.261719 -24.105469 52.238281 -29.667969 C 51.789062 -32.03125 50.128906 -34.398438 47.503906 -34.335938 C 45.269531 -34.335938 43.222656 -32.671875 41.6875 -31.265625 C 38.808594 -28.707031 36.445312 -25.703125 34.207031 -22.632812 C 33.949219 -22.3125 32.929688 -20.78125 31.777344 -18.988281 C 32.351562 -19.949219 33.121094 -20.84375 33.757812 -21.738281 C 31.074219 -17.964844 28.707031 -14.003906 26.40625 -10.039062 C 28.195312 -16.046875 31.136719 -21.609375 33.632812 -27.300781 C 34.589844 -29.410156 36.1875 -31.328125 37.082031 -33.503906 C 38.042969 -35.867188 37.46875 -38.875 35.867188 -40.855469 C 32.351562 -45.140625 27.300781 -37.722656 25.191406 -35.484375 C 20.90625 -30.945312 17.328125 -25.574219 14.003906 -20.394531 C 14.449219 -21.800781 14.707031 -23.144531 15.21875 -24.550781 C 15.855469 -26.34375 16.558594 -28.070312 17.136719 -29.859375 C 17.773438 -31.714844 18.351562 -33.632812 18.925781 -35.484375 C 19.5 -37.339844 20.140625 -39.832031 19.691406 -41.816406 C 19.375 -43.222656 18.796875 -45.203125 17.773438 -46.289062 C 16.175781 -48.015625 13.9375 -47.890625 11.890625 -47.25 C 10.039062 -46.675781 8.441406 -45.777344 6.96875 -44.5625 C 6.203125 -43.859375 5.5 -43.15625 4.796875 -42.390625 L 4.15625 -41.496094 C 3.773438 -40.984375 3.835938 -40.472656 3.644531 -40.023438 C 3.003906 -38.617188 1.917969 -37.53125 1.46875 -35.996094 C 1.023438 -34.269531 0.894531 -31.839844 1.917969 -30.304688 C 2.429688 -29.601562 3.261719 -29.089844 4.027344 -29.730469 C 4.476562 -30.179688 4.285156 -30.625 4.347656 -31.136719 C 4.410156 -31.519531 4.601562 -32.542969 4.859375 -33.183594 C 6.011719 -36.316406 7.738281 -39.449219 10.039062 -41.878906 C 10.996094 -42.964844 12.148438 -43.988281 13.554688 -44.371094 C 15.472656 -44.820312 15.535156 -43.285156 15.28125 -41.75 L 14.898438 -39.386719 L 14.898438 -40.023438 C 13.042969 -33.121094 9.460938 -26.726562 7.03125 -20.078125 C 5.816406 -16.816406 4.410156 -13.746094 3.070312 -10.550781 C 1.726562 -7.351562 0.191406 -3.582031 0 -0.0625 C -0.0625 1.152344 0.191406 2.367188 1.152344 3.132812 C 2.238281 4.027344 3.898438 4.09375 4.730469 2.941406 C 5.371094 2.046875 5.691406 0.449219 6.074219 -0.574219 C 6.714844 -2.238281 7.289062 -3.898438 7.992188 -5.5 C 8.632812 -7.226562 9.71875 -8.757812 10.675781 -10.359375 C 12.722656 -13.683594 14.769531 -17.007812 16.945312 -20.269531 C 18.988281 -23.402344 21.035156 -26.46875 23.273438 -29.410156 C 25.511719 -32.289062 27.75 -35.230469 30.691406 -37.402344 C 31.136719 -37.722656 32.671875 -38.9375 33.3125 -38.683594 C 33.824219 -38.492188 33.3125 -37.53125 33.121094 -37.019531 C 32.03125 -34.078125 30.625 -31.074219 29.027344 -28.386719 C 25.320312 -22.121094 21.484375 -15.089844 20.078125 -7.863281 C 19.566406 -5.433594 19.566406 -3.003906 21.484375 -1.152344 C 23.464844 0.703125 24.167969 -0.894531 24.808594 -2.683594 C 25.320312 -4.15625 26.40625 -5.433594 27.171875 -6.777344 C 28.261719 -8.566406 29.285156 -10.421875 30.433594 -12.277344 C 31.136719 -13.300781 31.648438 -14.707031 32.480469 -15.472656 C 33.824219 -16.816406 34.78125 -18.351562 35.867188 -19.882812 C 38.105469 -23.082031 40.34375 -26.152344 43.222656 -28.773438 C 43.925781 -29.410156 45.523438 -31.074219 46.609375 -30.816406 C 47.953125 -30.5 46.484375 -28.386719 46.546875 -27.558594 L 46.992188 -28.453125 C 46.609375 -27.300781 46.226562 -26.214844 45.777344 -25.128906 C 45.714844 -25.191406 45.972656 -25.957031 45.972656 -25.957031 C 45.714844 -26.023438 44.371094 -22.953125 44.179688 -22.632812 C 43.222656 -20.652344 42.070312 -18.667969 41.367188 -16.558594 C 40.664062 -14.640625 39.960938 -12.851562 39.128906 -10.996094 L 37.722656 -7.800781 C 37.46875 -7.097656 36.699219 -5.5625 36.890625 -4.796875 C 36.957031 -4.796875 37.019531 -4.796875 37.019531 -4.859375 L 36.699219 -3.707031 C 36.765625 -3.964844 36.828125 -4.539062 36.828125 -4.601562 C 36.570312 -4.410156 36.507812 -3.132812 36.507812 -3.132812 C 34.972656 2.238281 34.335938 7.929688 38.042969 12.722656 C 39.832031 15.023438 41.941406 16.046875 44.757812 15.28125 C 46.097656 14.960938 47.378906 14.320312 48.464844 13.425781 C 49.105469 12.851562 51.085938 11.125 50.832031 10.101562 C 50.636719 9.078125 48.144531 10.613281 47.503906 10.804688 Z M 39 -8.375 C 39.578125 -9.527344 40.089844 -10.742188 40.601562 -11.957031 C 40.984375 -12.914062 41.238281 -14.640625 41.878906 -15.410156 C 42.070312 -15.34375 42.070312 -15.152344 41.878906 -14.769531 C 41.429688 -12.46875 40.152344 -9.910156 39.128906 -7.738281 C 38.296875 -5.882812 37.46875 -3.964844 36.828125 -2.046875 C 37.46875 -4.15625 37.980469 -6.265625 39 -8.375 Z M 10.675781 -27.492188 C 11.574219 -29.601562 12.277344 -31.839844 13.171875 -33.949219 C 13.554688 -34.847656 14.003906 -35.867188 14.320312 -36.890625 C 13.554688 -33.886719 12.59375 -30.882812 11.1875 -28.003906 C 9.847656 -25.253906 8.632812 -22.441406 7.480469 -19.566406 C 8.503906 -22.25 9.527344 -24.871094 10.675781 -27.492188 Z M 31.136719 -18.03125 C 29.476562 -15.34375 27.683594 -12.59375 27.683594 -12.59375 C 27.875 -12.53125 30.242188 -16.496094 31.136719 -18.03125 Z M 40.855469 -30.242188 L 38.492188 -27.75 C 39.257812 -28.644531 40.023438 -29.476562 40.855469 -30.242188 Z M 36.316406 0 C 36.125 -0.0625 36.125 -0.191406 36.316406 -0.449219 C 36.445312 -0.382812 36.445312 -0.253906 36.316406 0 Z M 37.851562 -26.980469 L 37.980469 -27.171875 L 37.980469 -27.109375 C 38.105469 -27.367188 38.296875 -27.558594 38.363281 -27.621094 L 38.492188 -27.75 L 38.363281 -27.558594 L 38.105469 -27.300781 C 38.105469 -27.300781 38.171875 -27.300781 38.171875 -27.367188 L 38.105469 -27.300781 L 38.042969 -27.171875 Z M 31.265625 -18.222656 L 31.519531 -18.605469 L 31.519531 -18.542969 Z M 31.136719 -18.03125 L 31.265625 -18.222656 C 31.265625 -18.160156 31.203125 -18.09375 31.136719 -18.03125 Z M 38.296875 -27.558594 L 38.363281 -27.621094 C 38.363281 -27.621094 38.363281 -27.558594 38.296875 -27.558594 Z M 38.296875 -27.558594 "/></g></g></g><g fill="#e85a4f" fill-opacity="1"><g transform="translate(177.689879, 199.868965)"><g><path d="M 24.488281 -15.792969 C 24.488281 -15.730469 24.488281 -15.730469 24.425781 -15.792969 L 24.425781 -15.855469 C 23.402344 -17.582031 22.058594 -15.21875 21.484375 -14.386719 C 20.394531 -12.914062 19.375 -11.507812 18.222656 -10.167969 C 17.261719 -9.015625 16.238281 -7.863281 15.472656 -6.648438 C 15.472656 -6.523438 15.34375 -6.203125 15.34375 -6.203125 C 15.089844 -5.816406 14.707031 -5.5 14.386719 -5.113281 C 13.808594 -4.539062 13.234375 -3.898438 12.59375 -3.324219 C 11.636719 -2.429688 6.265625 2.621094 5.5625 -0.640625 C 5.179688 -2.238281 5.691406 -4.21875 6.011719 -5.753906 C 6.203125 -6.585938 6.394531 -7.351562 6.523438 -8.183594 C 6.648438 -8.824219 6.457031 -9.460938 6.777344 -10.101562 C 6.96875 -10.484375 7.03125 -10.421875 7.480469 -10.550781 L 8.566406 -10.933594 C 9.269531 -11.1875 9.972656 -11.445312 10.613281 -11.828125 C 11.574219 -12.402344 12.46875 -13.105469 13.300781 -13.808594 C 15.28125 -15.472656 17.390625 -17.453125 18.222656 -19.949219 C 18.667969 -21.355469 18.734375 -22.890625 17.839844 -24.105469 C 17.007812 -25.191406 15.601562 -25.765625 14.320312 -26.023438 C 10.871094 -26.660156 8.246094 -24.679688 6.265625 -22.058594 C 3.835938 -19.054688 2.109375 -15.34375 1.277344 -11.574219 C 0.832031 -9.71875 0.574219 -7.863281 0.253906 -5.945312 C -0.0625 -4.027344 -0.253906 -2.238281 0.765625 -0.449219 C 0.703125 -1.085938 0.574219 -1.664062 0.574219 -2.238281 C 0.574219 -2.558594 0.703125 -2.878906 0.703125 -3.132812 C 0.703125 -3.261719 0.574219 -3.644531 0.574219 -3.835938 C 0.574219 -4.410156 0.703125 -4.859375 0.832031 -5.433594 C 0.894531 -6.011719 0.832031 -6.585938 0.894531 -7.160156 C 0.960938 -7.800781 1.214844 -8.3125 1.46875 -8.886719 C 1.664062 -9.398438 1.726562 -9.847656 1.917969 -10.359375 C 2.109375 -10.804688 2.238281 -11.316406 2.429688 -11.828125 C 2.492188 -12.148438 2.8125 -12.53125 3.003906 -12.914062 C 2.8125 -12.339844 2.429688 -11.828125 2.300781 -11.316406 C 2.109375 -10.550781 2.238281 -9.71875 2.175781 -8.953125 C 2.046875 -8.121094 1.789062 -7.289062 1.664062 -6.394531 C 1.535156 -5.5625 1.152344 -4.796875 1.023438 -3.964844 C 0.894531 -3.195312 0.640625 -2.621094 0.703125 -1.855469 C 0.703125 -1.40625 0.765625 -0.960938 0.832031 -0.574219 C 0.894531 -0.0625 1.214844 0.253906 1.535156 0.640625 C 2.621094 1.917969 4.09375 2.941406 5.753906 3.390625 C 6.90625 3.707031 7.929688 3.644531 9.015625 3.070312 C 10.550781 2.238281 11.890625 0.960938 13.042969 -0.253906 C 14.128906 -1.46875 14.960938 -2.8125 15.921875 -4.09375 C 16.816406 -5.242188 17.902344 -6.328125 18.796875 -7.480469 L 22.25 -11.957031 L 24.230469 -14.578125 C 24.550781 -14.960938 24.742188 -15.28125 24.488281 -15.792969 Z M 8.632812 -15.089844 C 8.695312 -15.21875 8.695312 -15.28125 8.695312 -15.28125 C 9.65625 -17.328125 10.359375 -19.5 11.699219 -21.484375 L 12.851562 -23.015625 C 13.105469 -23.335938 13.554688 -23.914062 14.003906 -24.039062 C 14.960938 -24.230469 15.21875 -22.570312 15.152344 -21.929688 L 14.898438 -20.585938 C 14.832031 -20.203125 14.960938 -19.949219 14.898438 -19.628906 C 14.769531 -19.246094 14.449219 -19.054688 14.257812 -18.734375 L 13.171875 -17.328125 C 11.699219 -15.601562 9.847656 -14.128906 7.800781 -13.042969 C 8.121094 -13.746094 8.3125 -14.449219 8.632812 -15.089844 Z M 8.632812 -15.089844 "/></g></g></g><g fill="#e85a4f" fill-opacity="1"><g transform="translate(197.574422, 199.868965)"><g><path d="M 26.214844 -15.535156 C 25.832031 -17.199219 24.296875 -14.960938 23.976562 -14.578125 L 20.460938 -9.847656 L 17.007812 -5.308594 L 15.152344 -2.941406 C 14.960938 -2.683594 13.554688 -0.894531 13.683594 -0.894531 C 13.808594 -1.023438 14.003906 -1.023438 14.195312 -1.214844 C 13.234375 -0.191406 9.71875 3.003906 9.078125 2.238281 C 8.566406 1.597656 9.972656 -1.085938 10.167969 -1.726562 C 10.871094 -3.582031 11.507812 -5.5 12.277344 -7.289062 C 13.105469 -9.144531 14.066406 -10.996094 14.832031 -12.851562 C 15.601562 -14.832031 14.449219 -15.535156 12.59375 -15.984375 C 11.765625 -16.175781 10.742188 -16.175781 9.78125 -16.304688 C 9.78125 -16.238281 9.847656 -16.238281 9.847656 -16.238281 C 10.675781 -16.113281 11.890625 -16.046875 12.914062 -15.730469 C 11.382812 -16.175781 9.460938 -15.984375 8.246094 -16.304688 C 7.417969 -16.496094 6.90625 -16.496094 7.03125 -17.453125 C 7.160156 -18.734375 8.503906 -20.078125 8.953125 -21.292969 C 8.953125 -21.226562 8.503906 -20.078125 8.566406 -20.078125 C 8.886719 -19.949219 9.398438 -21.738281 9.398438 -21.996094 C 9.335938 -22.3125 8.566406 -23.273438 8.503906 -22.890625 L 8.632812 -22.699219 C 5.5625 -24.808594 1.917969 -20.460938 2.558594 -17.328125 C 2.683594 -16.878906 2.941406 -16.625 3.132812 -16.113281 C 3.261719 -15.730469 3.132812 -15.28125 3.515625 -14.769531 C 4.859375 -13.105469 7.289062 -13.042969 9.207031 -13.425781 C 8.886719 -12.980469 5.5 -5.816406 5.691406 -5.753906 L 5.242188 -4.15625 C 5.179688 -4.21875 5.433594 -4.730469 5.308594 -4.730469 C 4.859375 -4.796875 3.964844 -1.085938 3.898438 -0.765625 C 3.644531 0.765625 3.707031 2.109375 4.347656 3.515625 C 4.730469 4.410156 5.179688 5.179688 6.011719 5.691406 C 6.777344 6.203125 7.738281 6.457031 8.632812 6.265625 C 8.953125 6.136719 10.167969 5.308594 9.847656 5.371094 L 10.292969 5.179688 C 10.230469 5.242188 10.167969 5.308594 10.167969 5.371094 C 10.359375 5.433594 13.300781 3.070312 13.683594 2.8125 C 15.730469 1.085938 17.390625 -1.023438 18.925781 -3.132812 C 20.460938 -5.308594 22.058594 -7.480469 23.527344 -9.65625 C 24.230469 -10.675781 24.871094 -11.699219 25.382812 -12.789062 C 25.765625 -13.554688 26.40625 -14.640625 26.214844 -15.535156 Z M 7.097656 -7.863281 C 7.542969 -9.015625 8.054688 -10.101562 8.632812 -11.1875 C 8.757812 -11.382812 9.65625 -13.683594 10.101562 -13.808594 C 9.78125 -13.617188 8.441406 -10.484375 8.121094 -9.910156 L 6.90625 -7.097656 C 6.265625 -5.5625 5.5625 -3.964844 5.113281 -2.300781 C 5.5625 -4.21875 6.328125 -6.074219 7.097656 -7.863281 Z M 5.5625 4.410156 C 5.945312 4.921875 6.457031 5.433594 7.160156 5.691406 C 6.585938 5.5 6.074219 5.179688 5.691406 4.796875 C 5.753906 4.796875 5.753906 4.859375 5.753906 4.921875 C 5.371094 4.410156 4.859375 3.324219 4.796875 3.132812 C 4.601562 2.367188 4.539062 1.46875 4.601562 0.703125 C 4.601562 0.0625 4.667969 -0.449219 4.796875 -1.023438 L 4.796875 -0.960938 C 4.667969 -0.128906 4.601562 0.703125 4.667969 1.597656 L 4.667969 1.917969 C 4.601562 1.855469 4.601562 1.789062 4.601562 1.789062 C 4.601562 1.789062 4.601562 1.855469 4.667969 1.980469 L 4.667969 2.046875 L 4.921875 3.390625 L 4.730469 2.558594 C 4.859375 2.941406 5.179688 3.644531 5.5 4.347656 L 5.433594 4.285156 C 5.433594 4.347656 5.5 4.410156 5.5625 4.476562 Z M 7.351562 -16.6875 C 7.671875 -16.433594 8.246094 -16.367188 8.824219 -16.304688 C 8.3125 -16.367188 7.863281 -16.496094 7.542969 -16.75 C 7.542969 -16.75 7.160156 -17.070312 7.097656 -17.199219 C 7.097656 -17.070312 7.226562 -16.75 7.351562 -16.6875 Z M 14.066406 -11.699219 L 12.722656 -8.886719 L 14.066406 -11.765625 Z M 4.859375 -1.214844 C 4.859375 -1.152344 4.796875 -1.085938 4.796875 -1.023438 L 4.796875 -1.085938 C 4.796875 -1.152344 4.859375 -1.152344 4.859375 -1.214844 Z M 14.128906 -11.890625 L 14.128906 -11.828125 L 14.066406 -11.828125 Z M 14.128906 -11.890625 L 14.128906 -11.828125 L 14.066406 -11.828125 Z M 4.921875 -2.046875 C 4.921875 -2.109375 4.988281 -2.175781 4.988281 -2.300781 C 4.988281 -2.175781 4.921875 -2.109375 4.921875 -2.046875 Z M 5.179688 3.835938 C 5.179688 3.835938 5.242188 3.898438 5.242188 3.964844 C 5.242188 3.898438 5.179688 3.898438 5.179688 3.835938 Z M 7.160156 -17.328125 C 7.097656 -17.328125 7.097656 -17.261719 7.097656 -17.261719 Z M 7.160156 -17.328125 "/></g></g></g><g fill="#e85a4f" fill-opacity="1"><g transform="translate(219.121334, 199.868965)"><g><path d="M 16.75 -15.730469 C 16.625 -16.558594 15.730469 -16.304688 15.28125 -15.984375 C 14.707031 -15.601562 11.507812 -11.382812 11.765625 -11.0625 C 11.957031 -11.0625 12.085938 -11.0625 12.210938 -11.1875 C 11.316406 -10.101562 9.65625 -8.886719 8.441406 -7.929688 C 7.738281 -7.351562 6.011719 -5.753906 4.988281 -6.265625 C 2.8125 -7.351562 7.226562 -15.023438 7.03125 -15.089844 C 6.839844 -15.152344 5.242188 -11.574219 4.921875 -10.742188 C 5.691406 -12.980469 6.714844 -15.21875 7.929688 -17.199219 C 7.863281 -17.007812 7.671875 -16.6875 7.800781 -16.6875 C 7.929688 -16.625 8.886719 -17.964844 8.695312 -18.09375 C 8.632812 -18.09375 8.503906 -18.09375 8.441406 -18.03125 C 8.632812 -18.222656 8.953125 -18.285156 8.953125 -18.667969 C 8.953125 -19.308594 7.480469 -19.949219 6.96875 -20.140625 C 5.753906 -20.652344 4.539062 -20.78125 3.582031 -20.140625 C 2.300781 -19.375 2.046875 -17.839844 1.535156 -16.496094 C 1.40625 -16.113281 0.191406 -11.574219 0.449219 -11.507812 C 0.574219 -11.574219 0.574219 -11.636719 0.640625 -11.765625 L 0.449219 -10.613281 C 0.382812 -10.613281 0.511719 -10.933594 0.382812 -10.933594 C -0.128906 -10.933594 0 -8.632812 0.0625 -8.3125 C 0.320312 -7.160156 1.214844 -6.328125 1.917969 -5.371094 C 2.300781 -4.796875 2.683594 -4.21875 3.261719 -3.835938 C 4.027344 -3.261719 3.515625 -3.835938 4.027344 -3.582031 L 3.898438 -3.582031 C 3.835938 -3.195312 6.265625 -2.558594 6.777344 -2.621094 C 9.015625 -3.132812 10.613281 -5.882812 11.890625 -7.609375 C 13.105469 -9.144531 14.128906 -10.675781 15.21875 -12.277344 C 15.855469 -13.105469 17.007812 -14.515625 16.75 -15.730469 Z M 5.5625 -23.785156 C 5.691406 -23.59375 5.5 -23.335938 5.945312 -23.082031 C 6.394531 -22.890625 6.648438 -23.144531 7.03125 -23.273438 C 7.800781 -23.59375 8.375 -24.425781 8.953125 -24.9375 C 9.144531 -25.0625 8.757812 -25 8.757812 -25 C 9.589844 -25.765625 8.886719 -24.871094 9.65625 -25.320312 C 10.421875 -25.832031 10.550781 -26.660156 11.1875 -27.367188 C 10.421875 -27.046875 9.847656 -26.597656 9.335938 -25.957031 C 8.695312 -25.128906 8.246094 -24.742188 7.542969 -24.296875 C 8.3125 -24.871094 8.695312 -25.445312 9.335938 -26.46875 C 9.527344 -26.660156 9.71875 -26.789062 9.972656 -26.917969 C 9.78125 -27.109375 9.78125 -27.300781 10.039062 -27.492188 C 10.230469 -27.8125 10.613281 -27.941406 10.804688 -28.261719 C 11.125 -28.707031 11.0625 -29.285156 11.445312 -29.730469 C 11.765625 -29.988281 12.210938 -30.179688 12.46875 -30.433594 C 13.042969 -30.945312 13.683594 -31.90625 13.425781 -32.734375 C 13.171875 -33.503906 12.53125 -34.460938 11.828125 -34.910156 C 10.996094 -35.359375 9.847656 -35.550781 8.953125 -35.164062 C 8.757812 -35.101562 7.992188 -34.910156 8.246094 -34.652344 C 8.3125 -34.527344 8.375 -34.527344 8.503906 -34.527344 C 7.929688 -34.078125 6.96875 -33.3125 8.3125 -32.800781 C 8.183594 -32.671875 8.3125 -32.097656 8.3125 -32.03125 C 8.246094 -31.585938 7.351562 -29.21875 6.777344 -28.070312 L 7.542969 -29.21875 C 7.097656 -28.261719 6.585938 -27.367188 6.011719 -26.597656 C 6.394531 -27.429688 5.625 -26.46875 5.625 -26.277344 C 4.921875 -26.597656 5.113281 -24.617188 5.179688 -24.425781 C 5.179688 -24.359375 5.5625 -23.785156 5.5625 -23.785156 Z M 4.347656 -8.566406 L 4.347656 -8.503906 L 4.21875 -8.121094 L 4.347656 -8.632812 C 4.410156 -8.695312 4.410156 -8.695312 4.347656 -8.566406 Z M 6.457031 -27.558594 C 6.457031 -27.558594 6.585938 -27.683594 6.714844 -27.941406 Z M 5.816406 -26.34375 C 5.816406 -26.277344 5.816406 -26.277344 5.753906 -26.214844 C 5.753906 -26.214844 5.753906 -26.277344 5.691406 -26.277344 C 5.753906 -26.277344 5.753906 -26.277344 5.816406 -26.34375 Z M 5.816406 -26.34375 "/></g></g></g><g fill="#e85a4f" fill-opacity="1"><g transform="translate(231.205504, 199.868965)"><g><path d="M 25.957031 -33.246094 C 25.894531 -34.144531 24.9375 -33.4375 24.425781 -33.4375 C 21.867188 -33.3125 19.308594 -33.3125 16.816406 -33.183594 C 16.816406 -33.246094 16.945312 -33.503906 17.136719 -33.886719 C 16.878906 -33.4375 16.6875 -33.183594 16.496094 -33.183594 C 18.414062 -37.082031 20.460938 -40.984375 22.890625 -44.5625 C 22.824219 -44.4375 21.867188 -42.839844 21.929688 -42.839844 C 22.121094 -42.773438 24.488281 -46.035156 24.550781 -46.484375 C 24.550781 -46.738281 23.976562 -46.097656 23.976562 -46.164062 C 24.359375 -46.546875 25 -46.867188 25.191406 -47.378906 C 25.640625 -48.65625 24.296875 -49.230469 23.335938 -49.421875 C 21.355469 -49.808594 19.117188 -49.550781 17.839844 -47.890625 C 16.625 -46.417969 15.730469 -44.691406 14.960938 -42.964844 C 14.578125 -42.199219 14.066406 -42.007812 13.554688 -41.304688 C 12.789062 -40.214844 12.277344 -38.9375 11.699219 -37.722656 C 11.1875 -36.636719 10.675781 -35.484375 10.230469 -34.335938 C 9.972656 -33.757812 9.972656 -33.3125 9.398438 -33.121094 C 8.824219 -32.863281 7.738281 -33.054688 7.097656 -32.992188 C 4.601562 -32.671875 2.175781 -32.800781 -0.320312 -32.542969 C -1.597656 -32.480469 -2.878906 -32.480469 -4.09375 -32.03125 C -4.347656 -31.96875 -5.753906 -31.648438 -5.882812 -31.457031 C -6.265625 -30.753906 -4.730469 -30.691406 -4.410156 -30.625 C -1.980469 -30.304688 1.085938 -30.050781 3.515625 -30.5 C 5.179688 -30.816406 6.90625 -30.691406 8.695312 -30.816406 C 7.800781 -28.898438 7.097656 -26.855469 6.394531 -24.808594 L 5.625 -22.570312 C 5.371094 -21.867188 4.539062 -20.523438 4.539062 -19.757812 C 4.539062 -19.628906 4.730469 -19.949219 4.859375 -20.269531 C 4.539062 -19.308594 4.15625 -18.351562 3.898438 -17.390625 C 3.898438 -17.453125 4.09375 -18.222656 4.027344 -18.222656 C 3.707031 -18.222656 2.429688 -14.320312 2.300781 -14.003906 C 1.664062 -12.085938 0.960938 -10.167969 0.640625 -8.121094 C 0.253906 -6.074219 -0.253906 -4.09375 -0.703125 -2.109375 C -0.960938 -1.085938 -1.214844 -0.128906 -1.34375 0.894531 C -1.46875 1.40625 -1.597656 1.980469 -1.597656 2.492188 C -1.597656 2.621094 -1.597656 3.453125 -1.46875 3.195312 L -1.597656 4.476562 L -1.597656 3.515625 C -1.980469 3.964844 -1.597656 6.011719 -1.535156 6.394531 C -1.277344 7.671875 -0.640625 8.824219 0.511719 9.589844 C 1.535156 10.359375 3.132812 11.0625 4.347656 10.484375 C 5.945312 9.71875 7.289062 7.929688 8.3125 6.648438 C 10.550781 4.027344 12.59375 1.277344 14.640625 -1.46875 C 16.496094 -4.027344 18.414062 -6.523438 20.011719 -9.207031 C 20.90625 -10.742188 22.632812 -12.148438 23.210938 -13.875 C 23.527344 -14.707031 23.335938 -15.730469 22.3125 -15.535156 C 21.484375 -15.34375 20.332031 -13.105469 19.820312 -12.46875 C 17.519531 -9.589844 15.34375 -6.648438 13.042969 -3.773438 L 9.335938 0.765625 C 8.757812 1.40625 8.183594 2.109375 7.542969 2.75 C 7.289062 3.070312 5.691406 4.347656 5.753906 4.730469 C 5.753906 4.859375 6.457031 4.285156 6.714844 4.09375 C 6.394531 4.476562 6.011719 4.796875 5.691406 5.113281 C 5.753906 5.050781 4.410156 5.816406 4.21875 5.691406 C 3.003906 5.179688 4.09375 1.46875 4.285156 0.574219 C 5.433594 -4.601562 7.160156 -9.847656 8.886719 -14.832031 C 9.910156 -17.582031 10.933594 -20.203125 12.085938 -22.890625 C 12.660156 -24.230469 13.234375 -25.640625 13.875 -26.980469 L 14.769531 -29.410156 L 14.066406 -28.003906 C 14.515625 -29.15625 15.152344 -30.882812 15.535156 -30.945312 L 15.34375 -30.5625 C 15.472656 -30.753906 15.601562 -30.882812 15.730469 -30.945312 C 16.433594 -31.394531 18.222656 -30.945312 19.054688 -30.945312 C 19.628906 -30.945312 20.332031 -30.882812 20.90625 -31.074219 C 21.292969 -31.203125 21.164062 -31.394531 21.609375 -31.519531 C 22.378906 -31.648438 23.335938 -31.136719 24.167969 -31.394531 C 24.9375 -31.585938 26.023438 -32.289062 25.957031 -33.183594 Z M 13.808594 -29.539062 C 10.933594 -23.464844 8.757812 -16.945312 6.457031 -10.613281 C 5.371094 -7.738281 4.347656 -4.730469 3.644531 -1.726562 L 3.324219 -0.511719 C 3.773438 -2.8125 4.285156 -5.050781 4.921875 -7.289062 C 6.328125 -12.210938 8.121094 -17.070312 10.230469 -21.738281 C 13.808594 -29.730469 17.007812 -38.296875 22.121094 -45.523438 C 18.667969 -40.601562 16.367188 -34.972656 13.808594 -29.539062 Z M 18.03125 -35.867188 L 19.566406 -38.808594 C 19.246094 -38.746094 18.667969 -37.339844 18.03125 -35.867188 Z M 11.445312 -21.929688 C 10.996094 -20.714844 10.484375 -19.566406 9.972656 -18.414062 C 10.484375 -19.628906 10.933594 -20.90625 11.507812 -22.1875 C 11.445312 -22.058594 11.445312 -21.996094 11.445312 -21.929688 Z M 17.199219 -34.015625 L 17.839844 -35.421875 C 17.648438 -34.910156 17.390625 -34.398438 17.199219 -34.015625 Z M 3.261719 6.265625 C 3.195312 6.265625 3.132812 6.203125 3.070312 6.136719 Z M 3.261719 6.265625 "/></g></g></g></svg>